<svg width="315" height="29" viewBox="0 0 315 29" fill="none" xmlns="http://www.w3.org/2000/svg">
<path d="M5.16016 11.3203V28H0.0429688V0.480469H7.75781L12.6797 15.8711C12.901 16.7305 13.1289 17.5964 13.3633 18.4688C13.5977 19.3281 13.8255 20.1875 14.0469 21.0469C14.1901 20.5521 14.3268 20.0638 14.457 19.582C14.5872 19.0872 14.7174 18.5924 14.8477 18.0977C14.9909 17.6029 15.1341 17.1146 15.2773 16.6328L20.3359 0.480469H28.0117V28H22.8945V11.3203C22.8945 10.9427 22.9076 10.1875 22.9336 9.05469C22.9727 7.90885 23.0247 6.66536 23.0898 5.32422C22.6341 7.06901 22.2305 8.55339 21.8789 9.77734C21.5404 11.0013 21.2604 11.9583 21.0391 12.6484L16.0781 28H11.9766L7.01562 12.6484L4.92578 5.32422C5.00391 6.83464 5.0625 8.09115 5.10156 9.09375C5.14062 10.0833 5.16016 10.8255 5.16016 11.3203ZM48.8867 20.9688L46.4453 28H40.6836L50.7227 0.480469H57.5195L67.5195 28H61.8164L59.375 20.9688H48.8867ZM54.1211 4.71875C53.9909 5.23958 53.8086 5.86458 53.5742 6.59375C53.3398 7.32292 53.1706 7.83724 53.0664 8.13672L50.1758 16.6328H58.0859L55.1172 7.96094C54.9349 7.42708 54.7656 6.88672 54.6094 6.33984C54.4531 5.79297 54.2904 5.2526 54.1211 4.71875ZM102.711 20.0703C102.711 22.7656 101.708 24.8294 99.7031 26.2617C97.7109 27.681 94.7812 28.3906 90.9141 28.3906C83.9479 28.3906 79.8919 25.8711 78.7461 20.832L84.3125 19.9141C84.6901 21.3724 85.4258 22.4336 86.5195 23.0977C87.6133 23.7487 89.1302 24.0742 91.0703 24.0742C93.0885 24.0742 94.599 23.7682 95.6016 23.1562C96.6042 22.5443 97.1055 21.6263 97.1055 20.4023C97.1055 19.6211 96.8776 18.9766 96.4219 18.4688C95.9661 17.9609 95.3151 17.5378 94.4688 17.1992C94.0521 17.0299 93.4401 16.8477 92.6328 16.6523C91.8255 16.444 90.8229 16.2161 89.625 15.9688C88.2448 15.6432 87.1641 15.3698 86.3828 15.1484C85.6016 14.9141 84.9766 14.6927 84.5078 14.4844C84.0391 14.263 83.5833 14.0221 83.1406 13.7617C82.1641 13.1758 81.4023 12.3945 80.8555 11.418C80.3086 10.4414 80.0352 9.22396 80.0352 7.76562C80.0352 5.27865 80.9661 3.3776 82.8281 2.0625C84.7031 0.734375 87.4245 0.0703125 90.9922 0.0703125C94.4036 0.0703125 96.9622 0.604167 98.668 1.67188C100.387 2.73958 101.493 4.50391 101.988 6.96484L96.4023 7.72656C96.1159 6.54167 95.5299 5.64974 94.6445 5.05078C93.7721 4.45182 92.5156 4.15234 90.875 4.15234C89.1302 4.15234 87.8216 4.42578 86.9492 4.97266C86.0768 5.51953 85.6406 6.33984 85.6406 7.43359C85.6406 8.14974 85.8229 8.73568 86.1875 9.19141C86.5651 9.64714 87.1185 10.0378 87.8477 10.3633C88.5378 10.6758 90.0156 11.0729 92.2812 11.5547C93.5964 11.8411 94.7292 12.1146 95.6797 12.375C96.6302 12.6224 97.3919 12.8633 97.9648 13.0977C98.5378 13.3451 99.0456 13.6055 99.4883 13.8789C99.944 14.1523 100.335 14.4453 100.66 14.7578C101.324 15.3958 101.832 16.1576 102.184 17.043C102.535 17.9154 102.711 18.9245 102.711 20.0703ZM121.711 16.2031V28H115.949V0.480469H121.711V11.4375H133.703V0.480469H139.465V28H133.703V16.2031H121.711ZM160.379 20.9688L157.938 28H152.176L162.215 0.480469H169.012L179.012 28H173.309L170.867 20.9688H160.379ZM165.613 4.71875C165.483 5.23958 165.301 5.86458 165.066 6.59375C164.832 7.32292 164.663 7.83724 164.559 8.13672L161.668 16.6328H169.578L166.609 7.96094C166.427 7.42708 166.258 6.88672 166.102 6.33984C165.945 5.79297 165.783 5.2526 165.613 4.71875ZM212.289 23.5469V28H191.762V0.480469H197.523V23.5469H212.289ZM250.289 6.67188V11.7695H244.684V7.96094C244.684 6.38542 244.853 4.9987 245.191 3.80078C245.53 2.58984 246.064 1.48307 246.793 0.480469H250.367C249.56 1.49609 248.928 2.55078 248.473 3.64453C248.03 4.72526 247.809 5.73438 247.809 6.67188H250.289ZM282.746 23.4883V28H263.488V24.1914C263.97 23.1367 264.582 22.1081 265.324 21.1055C266.066 20.0898 266.952 19.0742 267.98 18.0586C269.022 17.0299 270.207 15.9753 271.535 14.8945C272.499 14.1133 273.319 13.4036 273.996 12.7656C274.673 12.1146 275.201 11.5352 275.578 11.0273C275.969 10.5195 276.262 10.0182 276.457 9.52344C276.652 9.01562 276.75 8.52083 276.75 8.03906C276.75 6.84115 276.444 5.94271 275.832 5.34375C275.233 4.74479 274.335 4.44531 273.137 4.44531C271.965 4.44531 271.066 4.76432 270.441 5.40234C269.829 6.02734 269.432 6.97135 269.25 8.23438L263.723 7.92188C264.035 5.36979 264.986 3.42318 266.574 2.08203C268.176 0.740885 270.35 0.0703125 273.098 0.0703125C276.066 0.0703125 278.345 0.747396 279.934 2.10156C281.522 3.45573 282.316 5.35677 282.316 7.80469C282.316 9.1849 282.03 10.4219 281.457 11.5156C280.884 12.6094 280.155 13.6185 279.27 14.543C278.54 15.3372 277.714 16.0924 276.789 16.8086C275.878 17.5247 274.992 18.2214 274.133 18.8984C273.221 19.6276 272.388 20.3633 271.633 21.1055C270.891 21.8477 270.337 22.6419 269.973 23.4883H282.746ZM314.168 20.3633C314.168 22.9414 313.322 24.9336 311.629 26.3398C309.936 27.7461 307.527 28.4492 304.402 28.4492C301.447 28.4492 299.096 27.7721 297.352 26.418C295.607 25.0508 294.585 23.0846 294.285 20.5195L299.871 20.0312C300.223 22.6745 301.727 23.9961 304.383 23.9961C305.698 23.9961 306.72 23.6706 307.449 23.0195C308.178 22.3685 308.543 21.3724 308.543 20.0312C308.543 18.8073 308.1 17.8698 307.215 17.2188C306.329 16.5677 305.014 16.2422 303.27 16.2422H301.355V11.8086H303.152C304.728 11.8086 305.913 11.4896 306.707 10.8516C307.501 10.2005 307.898 9.27604 307.898 8.07812C307.898 6.94531 307.579 6.0599 306.941 5.42188C306.316 4.77083 305.398 4.44531 304.188 4.44531C303.055 4.44531 302.137 4.75781 301.434 5.38281C300.743 6.00781 300.346 6.89323 300.242 8.03906L294.754 7.64844C295.04 5.27865 296.023 3.42318 297.703 2.08203C299.383 0.740885 301.577 0.0703125 304.285 0.0703125C307.163 0.0703125 309.409 0.721354 311.023 2.02344C312.651 3.3125 313.465 5.10286 313.465 7.39453C313.465 9.11328 312.957 10.526 311.941 11.6328C310.939 12.7396 309.487 13.4753 307.586 13.8398V13.918C309.695 14.1654 311.316 14.862 312.449 16.0078C313.595 17.1406 314.168 18.5924 314.168 20.3633Z" fill="white"/>
</svg>
