<svg width="512" height="53" viewBox="0 0 512 53" fill="none" xmlns="http://www.w3.org/2000/svg">
<path d="M26.76 45.12C29.2667 45.12 31.3733 44.9067 33.08 44.48C34.7867 44.0533 36.3333 43.4667 37.72 42.72L39.8 50.08C38.3067 50.8267 36.4133 51.4667 34.12 52C31.8267 52.5333 29.0267 52.8 25.72 52.8C22.0933 52.8 18.7067 52.2133 15.56 51.04C12.4667 49.8667 9.77333 48.1867 7.48 46C5.24 43.76 3.48 41.04 2.2 37.84C0.92 34.5867 0.28 30.9067 0.28 26.8C0.28 22.8 0.893333 19.2 2.12 16C3.34667 12.7467 5.08 10 7.32 7.76C9.61333 5.52 12.3333 3.81333 15.48 2.64C18.6267 1.41333 22.12 0.799996 25.96 0.799996C29.3733 0.799996 32.1733 1.09333 34.36 1.68C36.5467 2.26666 38.4133 2.96 39.96 3.76L37.72 11.12C36.12 10.32 34.4933 9.68 32.84 9.2C31.1867 8.72 29.2667 8.48 27.08 8.48C24.84 8.48 22.7067 8.82666 20.68 9.52C18.7067 10.16 16.9733 11.2267 15.48 12.72C14.04 14.16 12.8667 16.0533 11.96 18.4C11.1067 20.6933 10.68 23.4933 10.68 26.8C10.68 30 11.1067 32.7733 11.96 35.12C12.8133 37.4133 13.96 39.3067 15.4 40.8C16.84 42.2933 18.52 43.3867 20.44 44.08C22.4133 44.7733 24.52 45.12 26.76 45.12ZM68.3613 0.799996C71.8813 0.799996 75.1346 1.38666 78.1213 2.56C81.1079 3.68 83.6679 5.36 85.8013 7.6C87.9879 9.78667 89.6946 12.5067 90.9213 15.76C92.1479 18.96 92.7613 22.6667 92.7613 26.88C92.7613 30.9867 92.1213 34.64 90.8413 37.84C89.6146 41.04 87.8813 43.76 85.6413 46C83.4546 48.1867 80.8413 49.8667 77.8013 51.04C74.8146 52.2133 71.5613 52.8 68.0413 52.8C64.5213 52.8 61.2679 52.24 58.2813 51.12C55.2946 50 52.7079 48.3467 50.5213 46.16C48.3879 43.9733 46.7079 41.28 45.4813 38.08C44.2546 34.8267 43.6413 31.0933 43.6413 26.88C43.6413 22.7733 44.2546 19.12 45.4813 15.92C46.7613 12.6667 48.4946 9.92 50.6813 7.68C52.9213 5.44 55.5346 3.73333 58.5213 2.56C61.5613 1.38666 64.8413 0.799996 68.3613 0.799996ZM54.0413 26.88C54.0413 30.0267 54.4146 32.7467 55.1613 35.04C55.9079 37.3333 56.9213 39.2533 58.2013 40.8C59.5346 42.2933 61.0546 43.4133 62.7613 44.16C64.5213 44.9067 66.3879 45.28 68.3613 45.28C70.3346 45.28 72.1746 44.9067 73.8813 44.16C75.5879 43.4133 77.0546 42.2933 78.2813 40.8C79.5613 39.2533 80.5479 37.3333 81.2413 35.04C81.9879 32.7467 82.3613 30.0267 82.3613 26.88C82.3613 23.68 81.9879 20.9067 81.2413 18.56C80.4946 16.2133 79.4546 14.2933 78.1213 12.8C76.8413 11.2533 75.3213 10.1333 73.5613 9.44C71.8546 8.69333 70.0146 8.32 68.0413 8.32C66.0679 8.32 64.2279 8.72 62.5213 9.52C60.8146 10.2667 59.3213 11.4133 58.0413 12.96C56.8146 14.4533 55.8279 16.3733 55.0813 18.72C54.3879 21.0667 54.0413 23.7867 54.0413 26.88ZM105.101 1.6H117.501L125.501 26.72C126.194 28.9067 126.834 31.0933 127.421 33.28C128.061 35.4133 128.621 37.52 129.101 39.6H129.421C129.634 38.6933 129.874 37.7067 130.141 36.64C130.461 35.52 130.781 34.4 131.101 33.28C131.421 32.1067 131.714 30.96 131.981 29.84C132.301 28.72 132.621 27.68 132.941 26.72L140.701 1.6H153.101L157.101 52H147.741C147.314 46.5067 146.914 41.04 146.541 35.6C146.221 30.1067 146.007 24.6133 145.901 19.12L145.661 11.2H145.421C144.621 14.3467 143.767 17.5733 142.861 20.88C141.954 24.1867 141.047 27.2 140.141 29.92L133.101 52H125.181L117.981 29.92C116.754 26.1867 115.714 22.7733 114.861 19.68C114.061 16.5333 113.367 13.7067 112.781 11.2H112.621C112.514 15.36 112.327 19.7067 112.061 24.24C111.847 28.7733 111.607 32.96 111.341 36.8L110.461 52H101.261L105.101 1.6ZM177.834 1.6V52H168.074V1.6H177.834ZM189.403 1.6H198.203L217.403 29.92C218.469 31.52 219.456 33.12 220.363 34.72C221.269 36.2667 221.989 37.5467 222.523 38.56H222.683C222.363 34.88 222.203 31.2 222.203 27.52C222.203 23.7867 222.203 20.08 222.203 16.4V1.6H231.403V52H222.603L204.283 25.2C203.056 23.3867 201.883 21.4933 200.763 19.52C199.696 17.5467 198.869 15.9467 198.283 14.72H198.123C198.389 18.6667 198.523 22.5067 198.523 26.24C198.576 29.92 198.603 33.68 198.603 37.52V52H189.403V1.6ZM266.514 0.799996C269.554 0.799996 272.274 1.04 274.674 1.52C277.128 2 279.341 2.72 281.314 3.68L279.234 10.56C277.368 9.65333 275.448 9.01333 273.474 8.64C271.501 8.21333 269.501 8 267.474 8C265.234 8 263.101 8.34667 261.074 9.04C259.101 9.73333 257.341 10.8533 255.794 12.4C254.301 13.8933 253.101 15.84 252.194 18.24C251.341 20.5867 250.914 23.4667 250.914 26.88C250.914 32.9067 252.248 37.52 254.914 40.72C257.634 43.92 261.501 45.52 266.514 45.52C269.661 45.52 272.114 45.1733 273.874 44.48V32H265.154V24.64H283.154V49.76C281.021 50.6667 278.594 51.4133 275.874 52C273.154 52.5333 270.034 52.8 266.514 52.8C262.888 52.8 259.474 52.24 256.274 51.12C253.128 50 250.381 48.3467 248.034 46.16C245.688 43.9733 243.848 41.28 242.514 38.08C241.181 34.8267 240.514 31.0933 240.514 26.88C240.514 22.6667 241.181 18.9333 242.514 15.68C243.848 12.4267 245.661 9.70666 247.954 7.52C250.301 5.28 253.048 3.6 256.194 2.48C259.394 1.36 262.834 0.799996 266.514 0.799996ZM331.643 0.799996C334.63 0.799996 337.323 1.09333 339.723 1.68C342.176 2.21333 344.416 2.98667 346.443 4L344.203 11.52C342.016 10.4533 339.936 9.65333 337.963 9.12C335.99 8.58667 334.043 8.32 332.123 8.32C329.403 8.32 327.27 8.88 325.723 10C324.23 11.12 323.483 12.64 323.483 14.56C323.483 16.4267 324.096 17.8667 325.323 18.88C326.603 19.84 328.63 20.7733 331.403 21.68L336.283 23.28C340.443 24.6667 343.616 26.5867 345.803 29.04C347.99 31.4933 349.083 34.4 349.083 37.76C349.083 39.9467 348.656 41.9467 347.803 43.76C346.95 45.5733 345.723 47.1733 344.123 48.56C342.523 49.8933 340.55 50.9333 338.203 51.68C335.91 52.4267 333.296 52.8 330.363 52.8C327.483 52.8 324.683 52.5333 321.963 52C319.243 51.4133 316.63 50.5067 314.123 49.28L316.363 41.84C318.656 42.96 320.896 43.8133 323.083 44.4C325.27 44.9867 327.563 45.28 329.963 45.28C332.843 45.28 335.083 44.72 336.683 43.6C338.336 42.48 339.163 40.8533 339.163 38.72C339.163 37.9733 339.03 37.28 338.763 36.64C338.496 35.9467 338.016 35.3067 337.323 34.72C336.683 34.08 335.776 33.4667 334.603 32.88C333.43 32.2933 331.963 31.7067 330.203 31.12L325.723 29.6C322.043 28.32 319.083 26.64 316.843 24.56C314.656 22.4267 313.563 19.44 313.563 15.6C313.563 11.1733 315.11 7.6 318.203 4.88C321.296 2.16 325.776 0.799996 331.643 0.799996ZM380.393 0.799996C383.913 0.799996 387.166 1.38666 390.153 2.56C393.139 3.68 395.699 5.36 397.833 7.6C400.019 9.78667 401.726 12.5067 402.953 15.76C404.179 18.96 404.793 22.6667 404.793 26.88C404.793 30.9867 404.153 34.64 402.873 37.84C401.646 41.04 399.913 43.76 397.673 46C395.486 48.1867 392.873 49.8667 389.833 51.04C386.846 52.2133 383.593 52.8 380.073 52.8C376.553 52.8 373.299 52.24 370.313 51.12C367.326 50 364.739 48.3467 362.553 46.16C360.419 43.9733 358.739 41.28 357.513 38.08C356.286 34.8267 355.673 31.0933 355.673 26.88C355.673 22.7733 356.286 19.12 357.513 15.92C358.793 12.6667 360.526 9.92 362.713 7.68C364.953 5.44 367.566 3.73333 370.553 2.56C373.593 1.38666 376.873 0.799996 380.393 0.799996ZM366.073 26.88C366.073 30.0267 366.446 32.7467 367.193 35.04C367.939 37.3333 368.953 39.2533 370.233 40.8C371.566 42.2933 373.086 43.4133 374.793 44.16C376.553 44.9067 378.419 45.28 380.393 45.28C382.366 45.28 384.206 44.9067 385.913 44.16C387.619 43.4133 389.086 42.2933 390.313 40.8C391.593 39.2533 392.579 37.3333 393.273 35.04C394.019 32.7467 394.393 30.0267 394.393 26.88C394.393 23.68 394.019 20.9067 393.273 18.56C392.526 16.2133 391.486 14.2933 390.153 12.8C388.873 11.2533 387.353 10.1333 385.593 9.44C383.886 8.69333 382.046 8.32 380.073 8.32C378.099 8.32 376.259 8.72 374.553 9.52C372.846 10.2667 371.353 11.4133 370.073 12.96C368.846 14.4533 367.859 16.3733 367.113 18.72C366.419 21.0667 366.073 23.7867 366.073 26.88ZM436.252 0.799996C439.772 0.799996 443.025 1.38666 446.012 2.56C448.999 3.68 451.559 5.36 453.692 7.6C455.879 9.78667 457.585 12.5067 458.812 15.76C460.039 18.96 460.652 22.6667 460.652 26.88C460.652 30.9867 460.012 34.64 458.732 37.84C457.505 41.04 455.772 43.76 453.532 46C451.345 48.1867 448.732 49.8667 445.692 51.04C442.705 52.2133 439.452 52.8 435.932 52.8C432.412 52.8 429.159 52.24 426.172 51.12C423.185 50 420.599 48.3467 418.412 46.16C416.279 43.9733 414.599 41.28 413.372 38.08C412.145 34.8267 411.532 31.0933 411.532 26.88C411.532 22.7733 412.145 19.12 413.372 15.92C414.652 12.6667 416.385 9.92 418.572 7.68C420.812 5.44 423.425 3.73333 426.412 2.56C429.452 1.38666 432.732 0.799996 436.252 0.799996ZM421.932 26.88C421.932 30.0267 422.305 32.7467 423.052 35.04C423.799 37.3333 424.812 39.2533 426.092 40.8C427.425 42.2933 428.945 43.4133 430.652 44.16C432.412 44.9067 434.279 45.28 436.252 45.28C438.225 45.28 440.065 44.9067 441.772 44.16C443.479 43.4133 444.945 42.2933 446.172 40.8C447.452 39.2533 448.439 37.3333 449.132 35.04C449.879 32.7467 450.252 30.0267 450.252 26.88C450.252 23.68 449.879 20.9067 449.132 18.56C448.385 16.2133 447.345 14.2933 446.012 12.8C444.732 11.2533 443.212 10.1333 441.452 9.44C439.745 8.69333 437.905 8.32 435.932 8.32C433.959 8.32 432.119 8.72 430.412 9.52C428.705 10.2667 427.212 11.4133 425.932 12.96C424.705 14.4533 423.719 16.3733 422.972 18.72C422.279 21.0667 421.932 23.7867 421.932 26.88ZM469.871 1.6H478.671L497.871 29.92C498.938 31.52 499.925 33.12 500.831 34.72C501.738 36.2667 502.458 37.5467 502.991 38.56H503.151C502.831 34.88 502.671 31.2 502.671 27.52C502.671 23.7867 502.671 20.08 502.671 16.4V1.6H511.871V52H503.071L484.751 25.2C483.525 23.3867 482.351 21.4933 481.231 19.52C480.165 17.5467 479.338 15.9467 478.751 14.72H478.591C478.858 18.6667 478.991 22.5067 478.991 26.24C479.045 29.92 479.071 33.68 479.071 37.52V52H469.871V1.6Z" fill="url(#paint0_linear_1_14)"/>
<defs>
<linearGradient id="paint0_linear_1_14" x1="258" y1="-38" x2="258" y2="95" gradientUnits="userSpaceOnUse">
<stop stop-color="white"/>
<stop offset="1" stop-color="white" stop-opacity="0"/>
</linearGradient>
</defs>
</svg>
