<svg width="663" height="796" viewBox="0 0 663 796" fill="none" xmlns="http://www.w3.org/2000/svg">
<path d="M546.845 343.084L547.193 172.225L131.652 476.177L350.246 515.773L440.439 456.828L546.845 343.084Z" fill="url(#paint0_radial_5868_2335)"/>
<path style="mix-blend-mode:multiply" d="M546.845 343.084L547.193 172.225L131.652 476.177L350.246 515.773L440.439 456.828L546.845 343.084Z" fill="url(#paint1_radial_5868_2335)"/>
<path style="mix-blend-mode:multiply" d="M131.652 476.177L158.231 480.883C180.642 481.46 204.092 476.416 224.767 472.552C260.196 465.922 294.062 456.369 326.418 440.394C341.538 432.953 356.651 425.005 372.559 419.457C384.932 415.226 398.581 411.485 411.664 414.475C428.794 418.45 442.317 429.451 455.411 440.586L546.843 342.906L547.191 172.047L131.652 476.177Z" fill="url(#paint2_radial_5868_2335)"/>
<path d="M549.045 64.1405C549.045 64.1405 600.423 247.299 377.145 391.561C377.145 391.561 194.085 530.597 59.2376 457.618L549.045 64.1405Z" fill="url(#paint3_radial_5868_2335)"/>
<path style="mix-blend-mode:multiply" opacity="0.3" d="M549.045 64.1404L414.474 172.313C438.561 226.072 443.259 288.624 430.629 345.81C430.03 348.355 429.384 351.13 428.735 353.778C591.965 217.299 549.045 64.1404 549.045 64.1404Z" fill="url(#paint4_radial_5868_2335)"/>
<path style="mix-blend-mode:screen" d="M272.096 443.963C231.262 446.888 188.875 445.674 149.385 433.865C135.148 429.745 121.196 424.701 107.616 418.764L91.1305 432.008C132.234 454.07 183.056 459.734 228.235 455.48C247.186 453.762 265.941 450.317 284.266 445.19C286.56 444.143 288.855 443.096 291.098 442.025C284.818 442.907 278.484 443.553 272.096 443.963Z" fill="url(#paint5_linear_5868_2335)"/>
<path d="M235.499 457.917C187.112 463.205 132.241 458.282 88.3704 434.279L59.162 457.695C126.036 493.888 204.747 477.93 267.141 452.658C256.699 454.993 246.136 456.748 235.499 457.917Z" fill="url(#paint6_radial_5868_2335)"/>
<path d="M545.837 57.8166C572.097 90.8422 482.754 205.543 346.411 314.019C210.069 422.495 78.0433 483.643 51.7822 450.592C25.5212 417.541 114.698 292.643 251.066 184.167C387.434 75.6907 519.677 24.7643 545.837 57.8166Z" fill="url(#paint7_radial_5868_2335)"/>
<path d="M542.337 54.2877C568.598 87.3386 479.331 202.114 342.786 310.568C206.24 419.021 74.4167 480.116 48.1814 447.09C21.9461 414.064 111.097 289.141 247.465 180.665C383.833 72.1886 516.076 21.2621 542.337 54.2877Z" fill="url(#paint8_radial_5868_2335)"/>
<path style="mix-blend-mode:screen" d="M522.758 65.9001C547.805 97.3694 470.479 211.498 340.46 314.862C210.44 418.227 76.8874 471.683 51.8661 440.214C26.8449 408.744 121.122 287.531 251.294 184.164C381.466 80.797 497.737 34.405 522.758 65.9001Z" fill="url(#paint9_linear_5868_2335)"/>
<g opacity="0.4">
<path d="M174.638 379.6C166.606 379.71 158.574 379.407 150.573 378.69C105.509 374.747 75.5533 358.873 75.2718 358.7L75.9645 357.421C76.271 357.569 105.97 373.218 150.781 377.215C192.087 380.931 255.108 375.187 320.557 326.885C392.562 273.723 414.508 207.706 420.238 161.678C424.069 132.27 422.408 102.406 415.339 73.6044L416.729 73.1792C423.894 102.19 425.576 132.284 421.688 161.912C415.936 208.245 393.895 274.694 321.413 328.218C267.238 368.041 214.718 379.044 174.638 379.6Z" fill="#BABABA"/>
<path d="M320.702 328.152C268.347 305.205 209.888 213.458 209.289 212.401L210.522 211.623C211.118 212.553 269.346 304.049 321.216 326.8L320.702 328.152Z" fill="#BABABA"/>
</g>
<g style="mix-blend-mode:screen">
<path d="M175.527 379.587C167.495 379.698 159.462 379.394 151.461 378.677C106.37 374.608 76.4669 358.861 76.16 358.687L76.8527 357.409C77.1338 357.557 106.858 373.206 151.644 377.203C192.976 380.919 255.97 375.175 321.42 326.873C393.45 273.711 415.396 207.694 421.101 161.666C424.947 132.259 423.286 102.392 416.202 73.5925L417.617 73.1669C424.767 102.18 426.448 132.271 422.576 161.9C416.824 208.232 394.758 274.682 322.301 328.206C268.126 368.029 215.606 379.032 175.527 379.587Z" fill="#BABABA"/>
<path d="M321.565 328.14C269.235 305.193 210.875 213.318 210.178 212.389L211.41 211.61C211.981 212.541 270.234 304.037 322.104 326.788L321.565 328.14Z" fill="#BABABA"/>
</g>
<path d="M586.475 112.234C586.411 112.051 586.314 111.88 586.189 111.731C585.583 110.532 584.862 109.395 584.036 108.336C583.925 108.185 583.785 108.058 583.625 107.961L558.293 70.5329C557.509 67.7869 556.198 65.2198 554.433 62.9748C554.047 62.5891 553.533 62.3598 552.988 62.3312C552.443 62.3025 551.907 62.4765 551.484 62.8197C551.06 63.1628 550.778 63.6508 550.692 64.1895C550.607 64.7282 550.724 65.2794 551.021 65.7369C562.848 80.644 548.724 116.03 512.253 162.839C474.686 211.109 417.708 266.524 351.857 318.865C340.914 327.474 329.969 335.889 319.02 344.108C318.724 344.2 318.45 344.35 318.215 344.551C318.055 344.68 317.92 344.837 317.815 345.013C291.823 364.326 265.909 381.989 240.88 397.558C240.706 397.638 240.545 397.743 240.402 397.87C215.25 413.677 189.184 427.984 162.343 440.713C107.485 466.058 69.2074 472.196 57.3809 457.314C57.2035 457.087 56.983 456.898 56.7321 456.757C56.4812 456.616 56.2048 456.526 55.919 456.492C55.6332 456.458 55.3435 456.482 55.0666 456.56C54.7898 456.639 54.5312 456.772 54.3059 456.951C54.0784 457.13 53.8886 457.353 53.7473 457.606C53.606 457.859 53.5159 458.138 53.4822 458.426C53.4485 458.714 53.4718 459.005 53.5509 459.284C53.6299 459.563 53.7631 459.824 53.9429 460.051C57.183 463.971 61.5835 466.762 66.5109 468.021L95.6911 503.011C95.9941 503.378 96.4067 503.639 96.8686 503.756C100.797 507.152 106.77 509.708 115.783 510.141L116.29 510.134L324.421 516.029C324.665 516.065 324.914 516.061 325.157 516.019L325.385 516.016L325.687 515.834C326.214 515.446 346.962 500.316 376.74 477.704L376.892 477.702L377.019 477.7C389.07 468.526 402.551 458.14 416.782 446.982C416.965 446.874 417.134 446.744 417.284 446.594C435.356 432.44 454.578 417.052 473.491 401.39L473.669 401.387C473.669 401.387 473.669 401.387 473.794 401.258C489.747 388.047 505.445 374.662 520.056 361.646L520.183 361.645C529.055 353.733 537.497 345.953 545.234 338.463C545.369 338.34 545.479 338.192 545.557 338.027C545.641 337.885 545.699 337.73 545.729 337.568L584.99 144.198C584.977 144.14 584.976 144.079 584.987 144.021C589.378 131.299 590.445 120.451 586.475 112.234ZM542.248 333.582L520.675 327.563C530.206 318.416 539.71 309.049 549.184 299.462L542.248 333.582ZM415.875 441.895L403.587 430.343L459.336 407.041C444.66 419.067 429.929 430.815 415.874 441.844L415.875 441.895ZM340.405 499.519L315.5 496.617L364.361 481.579C355.045 488.559 346.934 494.634 340.404 499.469L340.405 499.519ZM324.708 511.103L314.419 500.945L335.206 503.346L324.708 511.103ZM243.293 509.466L297.644 500.644C289.423 506.137 284.117 509.534 282.558 510.596L243.293 509.466ZM97.7834 498.364C97.5837 498.118 97.3289 497.921 97.0396 497.791L74.4122 470.627L187.047 485.913C140.425 506.882 108.114 511.49 97.7834 498.364ZM159.255 446.769L188.612 481.68L92.6779 468.648C114.48 465.505 140.093 455.458 159.256 446.87L159.255 446.769ZM319.32 349.229L348.83 384.214L251.287 396.07C273.547 382.035 296.392 366.318 319.321 349.331L319.32 349.229ZM275.875 436.552L246.132 401.266L345.296 389.186C321.738 406.562 298.44 422.564 276.005 436.804L275.875 436.552ZM372.153 406.675C353.671 420.48 335.757 433.211 319.094 444.656L353.848 389.346L372.153 406.675ZM375.418 409.751L395.212 428.353L322.912 447.369C339.425 436.103 357.137 423.476 375.419 409.852L375.418 409.751ZM378.985 407.164C397.918 392.947 417.395 377.657 436.707 361.482L399.087 426.067L378.985 407.164ZM375.746 404.114L357.34 386.811L435.074 357.115C415.21 373.78 395.181 389.509 375.746 404.114ZM280.378 439.255C301.427 425.796 323.115 410.754 345.22 394.692L310.466 450.078L280.378 439.255ZM308.863 457.027L305.226 494.907L303.556 495.184L258.245 489.9C272.281 481.13 289.558 470.057 308.863 457.027ZM251.231 489.084L206.682 483.916L298.76 458.537C280.408 470.742 264.211 481.038 251.231 489.084ZM313.412 455.772L345.438 467.253C331.723 477.186 319.686 485.598 309.91 492.305L313.412 455.772ZM318.933 453.158L388.932 434.758C374.9 445.608 361.716 455.432 349.735 464.225L318.933 453.158ZM445.452 355.347L458.177 378.31C440.826 393.241 423.893 407.151 407.832 419.933L445.452 355.347ZM448.707 352.207L507.895 333.627C492.342 348.253 476.805 362.195 461.586 375.371L448.707 352.207ZM455.666 345.412C474.817 328.605 493.526 311.017 511.316 293.01L514.045 326.996L455.666 345.412ZM433.327 324.46C455.414 305.227 475.924 285.812 494.49 267.034L445.582 346.44L433.327 324.46ZM442.329 349.707L366.967 378.457C374.248 372.902 381.578 367.218 388.88 361.408C403.009 350.151 416.755 338.771 429.943 327.374L442.329 349.707ZM275.65 442.289L304.208 452.525L215.744 476.864C234.738 467.01 254.823 455.391 275.649 442.239L275.65 442.289ZM245.193 492.821C232.01 500.919 222.95 506.195 219.527 508.171L200.771 487.601L245.193 492.821ZM252.232 493.637L287.658 497.764L230.016 507.138C235.451 503.891 243 499.372 252.232 493.637ZM350.461 469.035L368.693 475.582L320.287 490.487C329.057 484.403 339.208 477.209 350.461 469.035ZM354.731 465.906C366.611 457.191 379.619 447.471 393.4 436.751L374.594 473.014L354.731 465.906ZM460.361 382.137L469.235 398.176L412.298 421.799C427.682 409.636 443.812 396.346 460.361 382.137ZM463.771 379.222C477.51 367.336 491.52 354.811 505.572 341.753L472.464 395.035L463.771 379.222ZM515.419 288.843C529.451 274.288 542.794 259.413 555.042 244.299L517.912 320.396L515.419 288.843ZM454.306 340.661L508.151 253.144L510.957 287.205C492.92 305.697 473.809 323.57 454.306 340.661ZM430.941 320.688L401.353 285.577L504.482 250.226C482.852 273.107 458.114 296.893 430.94 320.611L430.941 320.688ZM427.732 323.498C414.394 335.024 400.523 346.532 386.218 357.893C377.067 365.192 367.863 372.305 358.605 379.233L398.173 288.615L427.732 323.498ZM242.103 403.428L272.257 439.165C249.075 453.925 225.116 467.427 200.483 479.612L242.103 403.428ZM194.526 487.357L213.976 508.603L143.567 506.585C161.107 501.753 178.165 495.316 194.526 487.357ZM306.489 499.964L307.402 499.951L318.979 511.487L290.222 510.668C294.02 508.281 299.526 504.678 306.489 499.964ZM400.226 433.181L412.385 444.582C401.768 452.898 391.601 460.752 382.263 467.96L400.226 433.181ZM514.695 335.435L516.537 358.524C505.384 368.472 493.575 378.632 481.435 388.746L514.695 335.435ZM518.802 331.573L539.611 337.348C533.601 343.064 527.263 348.886 520.672 354.813L518.802 331.573ZM550.798 291.448C541.868 300.655 532.833 309.609 523.795 318.386L560.654 242.826L550.798 291.448ZM514.932 282.963L512.226 248.774L512.22 248.394L513.395 247.134L560.158 230.832C546.022 249.002 530.925 266.404 514.932 282.963ZM569.744 166.356C561.75 180.042 552.801 193.146 542.961 205.571C534.261 216.703 524.475 228.282 513.78 240.101L540.918 135.015L569.744 166.356ZM571.996 162.291L543.454 131.276L583.201 115.781C586.944 125.929 583.005 141.942 571.996 162.291ZM559.439 80.0315L580.316 110.874C580.469 111.075 580.651 111.252 580.856 111.399L581.167 111.851L542.178 127.056C551.644 110.738 559.147 93.7617 559.439 80.0315ZM515.691 165.557C521.873 157.606 529.02 147.891 535.726 137.523L508.876 241.437L479.113 208.283C492.712 193.632 504.971 179.305 515.691 165.557ZM476.087 211.521L506.108 244.875L405.832 279.248C431.676 256.537 455.361 233.654 476.087 211.521ZM354.543 322.304C367.492 311.976 380.085 301.585 392.321 291.132L352.63 381.98L322.862 346.694C333.426 338.835 343.987 330.705 354.543 322.304ZM235.794 405.926L194.346 481.677L163.417 444.986L164.022 444.698C188.646 433.114 212.607 420.17 235.794 405.926ZM564.337 224.786L519.518 240.402C529.338 229.457 538.348 218.727 546.425 208.365C557.928 193.902 568.172 178.481 577.045 162.272L564.337 224.786Z" fill="url(#paint10_radial_5868_2335)"/>
<path d="M541.871 365.023L546.963 351.607L540.12 350.281C438.339 444.501 334.498 525.506 334.498 525.506L341.306 522.469L541.871 365.023Z" fill="url(#paint11_radial_5868_2335)"/>
<path d="M603.421 445.462L563.206 395.961C517.522 426.05 374.441 522.441 374.441 522.441L367.633 525.478L427.296 592.445C469.518 621.951 550.072 557.761 550.072 557.761C634.106 488.321 603.421 445.462 603.421 445.462Z" fill="url(#paint12_radial_5868_2335)"/>
<path d="M610.63 442.013L545.039 366.603L547.363 351.17C445.582 445.391 341.681 522.032 341.681 522.032L374.664 522.006L434.327 588.999C476.549 618.48 557.103 554.315 557.103 554.315C641.315 484.872 610.63 442.013 610.63 442.013Z" fill="url(#paint13_radial_5868_2335)"/>
<path d="M221.71 528.464L334.524 525.505L341.332 522.468L227.586 524.044L221.71 528.464Z" fill="url(#paint14_radial_5868_2335)"/>
<path d="M240.618 514.222L227.586 524.044L341.332 522.468L354.389 512.646L240.618 514.222Z" fill="url(#paint15_radial_5868_2335)"/>
<path style="mix-blend-mode:multiply" d="M240.618 514.222L227.586 524.044L350.246 515.773L354.389 512.646L240.618 514.222Z" fill="url(#paint16_linear_5868_2335)"/>
<path style="mix-blend-mode:screen" d="M585.386 123.363C585.306 120.363 584.769 117.393 583.792 114.555C583.426 113.541 583.005 112.548 582.533 111.579C582.065 110.773 581.7 110.093 581.338 109.566C581.675 110.094 582.04 110.799 582.508 111.604C582.986 112.559 583.399 113.545 583.741 114.556C584.709 117.394 585.23 120.366 585.284 123.364C585.347 127.416 584.917 131.46 584.005 135.408C581.271 146.013 577.083 156.189 571.56 165.646C564.538 178.022 556.657 189.89 547.974 201.163C535.997 216.781 523.24 231.785 509.753 246.119L509.575 246.121L537.514 131.054C537.952 131.555 539.781 133.559 542.435 136.44C543.979 138.068 545.731 139.998 547.586 141.976L553.711 148.26L559.937 154.44C561.918 156.417 563.82 158.192 565.44 159.743C568.68 162.844 570.913 164.742 570.913 164.742C570.913 164.742 568.929 162.511 565.763 159.231C564.218 157.629 562.441 155.7 560.611 153.695L554.689 147.434L548.464 141.254C546.483 139.302 544.58 137.502 542.961 135.951C540.158 133.275 538.103 131.426 537.614 130.951L582.027 113.489L537.433 130.725L509.016 246.053C508.397 245.301 506.642 243.194 504.193 240.361C502.621 238.606 500.841 236.5 498.831 234.295L492.369 227.534L486.059 220.746C484.05 218.591 482.095 216.614 480.473 214.911C477.178 211.506 474.915 209.305 474.915 209.305C474.915 209.305 476.903 211.815 480.072 215.323C481.619 217.103 483.424 219.209 485.408 221.389L491.618 228.28L497.928 235.043C499.963 237.222 501.893 239.175 503.54 240.902C506.115 243.607 508.121 245.533 508.688 246.21L397.042 283.911C396.914 283.96 396.808 284.051 396.741 284.169L350.454 386.095L350.301 386.097L240.45 399.569C240.385 399.57 240.322 399.59 240.268 399.627C240.214 399.664 240.173 399.716 240.149 399.776L192.514 485.026C191.894 484.222 190.163 481.938 187.684 478.826C186.109 476.894 184.327 474.61 182.34 472.227L176.122 464.702L169.801 457.178C167.79 454.821 165.831 452.666 164.207 450.785C160.882 447.051 158.616 444.647 158.616 444.647C158.616 444.647 160.632 447.283 163.781 451.172C165.33 453.104 167.138 455.388 169.125 457.796L175.344 465.321L181.664 472.845C183.676 475.202 185.634 477.357 187.258 479.238C189.836 482.145 191.768 484.25 192.413 485.027L66.6658 468.248L192.65 485.683C179.976 491.786 166.952 497.134 153.647 501.701C143.332 505.379 132.602 507.769 121.701 508.816C117.662 509.141 113.598 508.993 109.593 508.375C106.637 507.915 103.777 506.968 101.13 505.574C99.4942 504.687 97.9923 503.571 96.6698 502.262L95.3814 500.833L96.6448 502.287C97.9673 503.597 99.4692 504.712 101.105 505.6C103.754 507.026 106.624 507.998 109.594 508.476C113.605 509.124 117.678 509.297 121.729 508.993C132.658 508.012 143.423 505.681 153.779 502.054C167.266 497.547 180.447 492.169 193.237 485.954L194.095 485.562L194.805 485.552L217.477 510.407L117.216 509.259L221.063 511.068L324.907 512.699C324.943 512.717 324.982 512.725 325.022 512.725C325.061 512.724 325.1 512.714 325.136 512.696L339.201 502.352C343.872 498.913 348.544 495.474 353.189 492.01L367.102 481.668C371.773 478.204 376.392 474.639 380.987 471.124L394.82 460.505C399.439 456.965 404.059 453.45 408.601 449.835L435.983 428.271C440.55 424.655 444.989 420.915 449.506 417.275L463.003 406.229C467.493 402.538 472.036 398.923 476.449 395.133L489.688 383.811L502.927 372.464L509.519 366.613L515.958 360.714L541.637 337.143C541.649 337.076 541.648 337.007 541.635 336.94L561.709 240.249L581.487 144.171C582.486 141.163 583.334 138.284 583.905 135.536C584.894 131.554 585.392 127.466 585.386 123.363ZM512.97 302.578C513.55 309.598 514.129 316.592 514.676 323.156C514.695 324.475 514.914 325.69 515.009 327.008L446.16 349.731C448.166 348.003 450.197 346.275 452.152 344.573C457.165 340.089 462.178 335.681 467.19 331.197C472.202 326.713 476.862 322.386 481.444 317.984C486.026 313.582 490.56 309.358 494.839 305.112C499.119 300.867 503.35 296.774 507.352 292.634C508.928 291.013 510.479 289.393 512.03 287.824C512.224 292.642 512.623 297.61 512.97 302.578ZM304.329 497.939L304.707 497.705L304.884 497.703L305.347 498.128L304.329 497.939ZM306.297 498.952L320.481 511.872L283.66 511.368C284.892 510.615 289.168 507.917 295.806 503.588C298.044 502.111 300.584 500.452 303.349 498.612L306.297 498.952ZM292.46 496.479L265.7 493.298L250.452 491.556L253.622 489.609C260.943 485.118 269.144 480.006 277.995 474.276C286.847 468.547 296.427 462.299 306.482 455.563L308.619 454.087L304.546 497.098L301.508 497.597L292.46 496.479ZM298.343 498.072L219.863 510.501L218.518 510.519C220.255 509.531 226.071 506.279 234.651 501.111C238.804 498.643 243.66 495.735 249.069 492.437L265.639 494.415L292.423 497.444L298.343 498.072ZM198.38 483.524L251.613 469.136L307.097 454.159L306.016 454.885C295.962 461.671 286.482 467.841 277.632 473.698C267.297 480.387 257.941 486.352 249.816 491.412L238.889 490.168L215.512 487.625L195.185 485.547L194.825 485.146L198.38 483.524ZM194.464 484.745L194.462 484.593L195.397 484.351L194.464 484.745ZM507.877 248.073C498.001 258.587 487.467 269.237 476.401 279.945C461.554 294.283 445.718 308.66 429.296 322.867C428.702 322.089 427.048 319.904 424.723 316.943C423.251 315.086 421.547 312.902 419.561 310.595L413.677 303.42L407.692 296.348C405.783 294.066 403.928 292.011 402.381 290.231C399.984 287.499 398.18 285.519 397.459 284.743L508.371 247.102L507.877 248.073ZM505.816 251.324L444.241 348.59L443.201 346.752L436.336 334.745C433.086 329.056 430.644 324.954 429.839 323.595C446.26 309.312 462.12 294.859 476.966 280.445C487.005 270.74 496.664 260.991 505.765 251.325L505.816 251.324ZM429.79 323.723C430.52 325.134 432.735 329.365 435.809 335.133C437.711 338.709 439.976 342.864 442.371 347.297C442.788 348.077 443.205 348.858 443.647 349.613L442.752 350.996C413.223 362.264 383.642 373.406 354.114 384.75C364.434 376.996 374.728 369.115 384.891 361.033C400.174 348.871 415.224 336.357 429.739 323.724L429.79 323.723ZM397.052 429.368L393.634 426.193L382.09 415.24L373.994 407.741C384.039 400.244 394.081 392.519 404.121 384.717C409.591 380.303 415.112 375.913 420.531 371.474C425.95 367.035 431.344 362.622 436.609 358.109L440.621 354.679L419.678 390.489L397.052 429.368ZM351.225 386.871C352.718 388.372 355.805 391.425 359.868 395.377L369.871 405.007L372.443 407.509L370.108 409.266C364.55 413.437 359.033 417.513 353.557 421.496C348.082 425.505 342.603 429.26 337.253 433.216C331.904 437.172 326.549 440.696 321.347 444.346L310.265 452.06L351.151 386.973L351.225 386.871ZM321.864 444.998C327.065 441.374 332.419 437.723 337.795 433.893C343.172 430.064 348.674 426.131 354.151 422.224C359.628 418.317 365.204 414.206 370.753 410.069L373.265 408.208C375.837 410.709 378.689 413.334 381.415 415.96C385.399 419.634 389.359 423.462 393.058 426.785L396.296 429.759L311.206 452.25L321.864 444.998ZM435.987 357.153C430.722 361.666 425.276 366.004 419.883 370.494C414.49 374.983 408.942 379.246 403.447 383.636C393.407 391.513 383.366 399.314 373.323 406.888L370.497 404.389L360.219 395.017C356.056 391.244 352.819 388.371 351.227 386.947C381.514 375.491 411.798 363.806 441.907 352.251L435.987 357.153ZM309.474 451.716L305.852 450.371L289.867 444.782L278.649 440.853L275.334 439.681C278.805 437.476 282.3 435.195 285.82 432.913C306.589 419.28 327.797 404.423 348.892 388.73L309.474 451.716ZM310.483 453.148L323.643 458.04L341.801 464.766L347.436 466.819C340.579 471.811 334.073 476.569 327.942 480.866C321.334 485.55 315.253 489.795 309.825 493.549C308.217 494.688 306.684 495.749 305.176 496.76L309.42 453.341L310.483 453.148ZM342.145 463.949L324.036 457.096L312.177 452.694L394.541 431.255C387.138 437.117 379.706 442.751 372.551 448.254C364.517 454.404 356.631 460.197 349.172 465.73L348.242 466.402L342.145 463.949ZM420.571 390.832L442.725 352.671L444.43 351.201L444.582 351.199L449.996 361.069C452.598 365.778 455.201 370.486 457.799 374.89L459.49 377.886C455.478 381.367 451.391 384.874 447.227 388.332C439.076 395.168 430.826 402.158 422.395 408.973L409.852 419.296L399.261 427.663L420.571 390.832ZM458.578 374.372L450.952 360.498L445.541 350.83L514.815 327.645L511.56 330.785L502.394 339.488L492.372 348.583C485.481 354.818 478.316 361.464 470.644 368.09C467.109 371.133 463.55 374.278 459.94 377.423L458.578 374.372ZM285.353 432.133C281.682 434.569 278.011 436.929 274.364 439.263C274.364 439.263 272.376 436.753 269.202 432.941C267.654 431.059 265.898 428.851 264.039 426.542L257.875 419.27L251.585 412.101C249.599 409.819 247.667 407.715 246.044 405.911C243.468 403.13 241.614 401.126 240.892 400.349L349.05 387.307C327.729 403.231 306.322 418.345 285.353 432.133ZM275.308 439.63L278.625 440.954L289.722 445.342L305.487 451.441L308.93 452.738L308.78 452.943L251.479 468.605L199.917 482.767C225.807 469.773 250.966 455.373 275.283 439.631L275.308 439.63ZM310.036 494.13L318.708 488.25L328.257 481.598C334.515 477.274 341.171 472.412 348.205 467.367L357.666 470.813L368.935 474.793L372.607 476.086L338.931 486.549L321.828 491.861L306.014 496.85L310.036 494.13ZM372.91 475.981L372.631 475.985L368.933 474.615L357.86 470.202L348.983 466.772L349.536 466.359C357.071 460.876 364.933 455.109 372.992 448.984C380.525 443.298 388.057 437.51 395.913 431.414L372.934 475.93L372.91 475.981ZM410.447 420.074C414.611 416.667 418.827 413.285 422.991 409.878C431.423 403.114 439.622 396.074 447.747 389.238C451.861 385.807 455.898 382.325 459.859 378.921L464.54 387.153C467.816 392.842 470.258 396.969 471.063 398.303L470.737 398.586L434.059 413.937L415.494 421.806L399.604 428.597L410.447 420.074ZM471.035 398.151C470.331 396.765 468.116 392.508 465.016 386.715C463.637 384.197 462.099 381.275 460.433 378.228L471.262 368.691C478.934 362.089 486.072 355.368 492.937 349.108L502.959 339.962L512.099 331.209L514.603 328.84L504.149 345.299L493.079 363.01L471.186 398.047L471.035 398.151ZM506.687 292.186C502.76 296.3 498.529 300.393 494.173 304.614C489.817 308.835 485.36 313.134 480.752 317.486C476.144 321.838 471.358 326.217 466.472 330.623C461.585 335.03 456.446 339.49 451.434 343.974C449.228 345.933 446.946 347.868 444.689 349.802L444.534 349.55L507.566 249.422C508.116 248.856 508.641 248.266 509.191 247.675C509.226 250.211 509.687 256.066 510.178 264.026C510.556 269.298 510.971 275.432 511.442 281.997C511.465 283.646 511.691 285.292 511.817 287.066C510.139 288.688 508.465 290.512 506.737 292.185L506.687 292.186ZM397.485 284.793C398.131 285.647 399.734 287.781 401.955 290.618C403.452 292.474 405.132 294.658 407.117 296.965L412.976 304.14L418.961 311.212C420.895 313.469 422.725 315.524 424.272 317.329C426.848 320.161 428.627 322.191 429.271 322.893C414.68 335.527 399.579 348.016 384.118 360.181C373.528 368.624 362.809 376.891 352.062 384.982L397.485 284.793ZM240.74 400.351C241.386 401.18 243.091 403.364 245.491 406.324C247.065 408.18 248.821 410.414 250.807 412.72L256.971 419.993C259.112 422.5 261.25 424.856 263.236 427.162C265.221 429.469 267.178 431.522 268.802 433.327C272.048 436.91 274.288 439.238 274.313 439.263C249.319 455.53 223.407 470.341 196.707 483.623L194.002 484.396C193.978 484.424 193.965 484.461 193.965 484.498C193.966 484.536 193.98 484.572 194.005 484.599L194.237 484.85L193.179 485.372L240.74 400.351ZM194.245 485.408L194.598 485.251L194.829 485.476L194.245 485.408ZM195.313 485.596L215.444 488.209L238.775 491.083L248.432 492.243C243.2 495.513 238.521 498.394 234.495 500.834C225.789 506.029 220.127 509.406 218.415 510.394L217.553 510.406L195.313 485.596ZM219.887 510.399L300.578 498.219L302.865 498.466L295.753 503.411C289.167 507.841 284.892 510.589 283.71 511.367L221.208 510.507L219.887 510.399ZM324.844 511.812L320.507 511.872L306.729 498.996L315.724 499.963L337.955 502.192L324.844 511.812ZM366.631 480.635L352.72 491.128C348.101 494.643 343.429 498.082 338.757 501.471L337.953 502.065L315.789 499.175L305.801 497.944L305.081 497.269L321.908 492.19L339.012 486.878L371.048 477.098L366.631 480.635ZM408.027 448.727C403.485 452.342 398.865 455.857 394.272 459.421L380.464 470.041L374.389 474.742L397.325 430.76L403.236 436.184C408.118 440.632 411.74 443.855 412.896 444.879L408.027 448.727ZM462.432 405.323L448.909 416.319C444.418 419.959 439.954 423.699 435.386 427.289L412.924 445.031C411.817 443.93 408.421 440.526 403.638 435.899L397.955 430.421L415.915 422.84L434.454 414.972L468.404 400.471C466.42 401.995 464.362 403.597 462.432 405.323ZM515.467 360.112L509.028 365.986L502.408 371.634L489.143 382.956L475.904 394.277L473.397 396.443L493.82 363.431L504.789 345.671L515.285 328.602C515.677 333.139 516.041 337.396 516.374 341.273C517.202 349.761 517.795 355.969 518.001 358.021L515.467 360.112ZM515.963 328.136L541.049 336.77L517.898 357.896C517.869 355.816 517.377 349.632 516.879 341.139C516.722 337.133 516.306 332.749 515.962 328.06L515.963 328.136ZM541.098 336.694L515.982 327.679L515.98 327.502L516.259 327.498C516.306 327.49 516.35 327.468 516.385 327.437C516.42 327.405 516.446 327.363 516.459 327.318L516.632 326.985C520.714 323.072 524.495 319.442 527.898 316.046L539.883 303.879L550.166 293.436L541.098 336.694ZM561.377 240.127L550.215 293.308L539.777 303.602L527.689 315.618C524.535 318.681 521.028 321.952 517.347 325.453L540.197 277.133L563.783 226.976L539.788 276.91L515.969 326.741C515.953 325.549 515.809 324.358 515.716 323.116C515.245 316.551 514.716 309.531 514.188 302.535C513.734 297.264 513.306 291.993 512.906 286.899C514.881 284.842 516.832 282.81 518.682 280.78L528.93 269.652L537.896 259.379C540.744 256.168 543.264 253.063 545.609 250.189L552.071 242.311C555.886 237.462 558.775 233.591 560.794 231.001L563.885 226.975L560.768 230.95C558.723 233.516 555.783 237.388 551.942 242.186C549.945 244.547 547.774 247.165 545.402 249.888C543.029 252.61 540.409 255.818 537.586 259.003L528.544 269.277L518.244 280.355C516.52 282.256 514.694 284.134 512.818 286.063C512.798 284.667 512.602 283.275 512.482 281.932C511.909 275.368 511.367 269.261 510.914 263.99C510.143 255.983 509.553 250.029 509.317 247.647L510.642 246.234L563.884 226.898L511.341 245.387C525.314 230.274 537.871 215.461 548.535 201.333C557.214 190.059 565.054 178.163 571.993 165.741C575.906 158.802 579.202 151.531 581.84 144.014L561.377 240.127Z" fill="url(#paint17_radial_5868_2335)"/>
<path d="M340.077 373.274L334.065 366.024L327.929 358.98C325.994 356.698 324.088 354.618 322.515 352.813C319.319 349.23 317.105 346.901 317.105 346.901C317.105 346.901 319.043 349.411 322.038 353.201C323.561 355.082 325.292 357.291 327.201 359.599C329.111 361.907 331.175 364.365 333.213 366.848L339.35 373.969C341.285 376.251 343.166 378.331 344.764 380.135C347.96 383.744 350.149 386.074 350.149 386.074C350.149 386.074 348.237 383.563 345.241 379.748C343.717 377.79 341.986 375.581 340.077 373.274Z" fill="url(#paint18_radial_5868_2335)"/>
<path style="mix-blend-mode:screen" d="M573.793 97.8721L569.908 92.1157L565.871 86.4376C564.603 84.6284 563.286 82.9721 562.277 81.5399C560.157 78.7022 558.66 76.8455 558.66 76.8455C558.66 76.8455 559.855 78.9094 561.774 81.8767C562.759 83.36 563.849 85.1209 565.091 86.9051L569.002 92.6611L573.013 98.3396C574.282 100.149 575.599 101.805 576.608 103.237C578.728 106.075 580.225 107.932 580.225 107.932C580.225 107.932 579.029 105.868 577.111 102.9C576.152 101.468 575.062 99.7066 573.793 97.8721Z" fill="url(#paint19_radial_5868_2335)"/>
<path style="mix-blend-mode:multiply" d="M503.183 154.618C503.183 154.618 397.873 296.281 186.101 415.824C186.101 415.824 358.903 333.001 503.183 154.618Z" fill="url(#paint20_linear_5868_2335)"/>
<g style="mix-blend-mode:screen">
<path d="M509.849 154.145C509.849 154.145 400.005 300.007 188.233 419.549C188.233 419.549 365.569 332.528 509.849 154.145Z" fill="white"/>
</g>
<path style="mix-blend-mode:multiply" opacity="0.6" d="M431.651 174.206L386.856 187.842L387.155 187.458L387.329 187.202L387.951 186.33L388.15 186.023C388.35 185.767 388.498 185.486 388.647 185.255L388.796 185.025L389.241 184.181L389.239 184.029C389.236 183.826 389.411 183.621 389.484 183.442C389.495 183.375 389.494 183.306 389.482 183.239C389.489 183.104 389.487 182.968 389.476 182.833C389.476 182.833 389.476 182.833 389.474 182.656C389.499 182.504 389.497 182.35 389.467 182.199L513.213 140.575C512.483 139.19 515.861 137.57 515.181 136.158L335.917 199.382L335.706 198.827C335.7 198.395 332.579 200.189 328.813 203.032C326.307 204.694 324.053 206.707 322.121 209.011L322.384 209.693C322.235 209.872 322.085 210.027 321.96 210.206L223.879 333.35L189.138 371.331C190.884 371.027 189.135 371.153 190.884 371.027L212.282 347.896L147.844 428.938C151.339 433.964 147.179 428.542 150.823 433.388L248.633 308.929L300.357 253.308L300.534 253.305L300.712 253.303L302.124 252.649L302.426 252.492L303.812 251.839L304.19 251.631L305.627 250.926L306.004 250.718L307.566 249.909L307.944 249.727L309.631 248.79L309.933 248.633L311.973 247.514C316.758 244.911 322.039 241.539 327.949 237.778L328.629 239.19L330.116 242.188C330.563 243.324 338.645 238.797 348.065 231.969C357.485 225.14 364.344 218.474 363.871 217.313L361.602 212.803C364.585 210.225 367.419 207.8 369.999 205.456C370.776 204.76 371.528 204.09 372.254 203.395L372.405 203.266C374.609 201.18 376.636 199.198 378.488 197.346L378.714 197.14L380.314 195.469L380.439 195.34L382.938 192.565L431.486 178.775C432.149 177.142 430.986 175.636 431.651 174.206ZM262.37 291.384L291.442 254.446C291.461 254.501 291.492 254.552 291.532 254.595C291.572 254.638 291.62 254.673 291.674 254.697C291.663 254.747 291.664 254.799 291.676 254.849C291.638 254.973 291.64 255.106 291.681 255.229C291.708 255.333 291.773 255.422 291.862 255.48C291.937 255.498 292.016 255.497 292.09 255.477L292.268 255.475L293.206 255.462L293.486 255.458L293.993 255.451L294.323 255.446L294.955 255.285L295.259 255.281L295.513 255.278L262.37 291.384ZM304.529 241.325C300.867 244.319 297.858 246.949 295.63 249.06L320.548 216.315L304.529 241.325ZM357.049 201.017L356.787 200.438C356.391 199.276 348.64 203.899 339 211.289C329.359 218.679 321.111 225.822 321.456 226.958L321.771 227.69C318.081 230.532 314.617 233.244 311.43 235.8L328.953 207.648L330.108 206.795L330.685 206.356L332.016 205.322L361.444 197.76L357.049 201.017ZM368.982 192.454L346.938 198.24L377.225 186.783C374.862 188.338 372.047 190.28 368.982 192.454Z" fill="url(#paint21_radial_5868_2335)"/>
<path d="M191.328 370.032L191.176 370.034C190.889 370.018 190.607 369.946 190.348 369.822C190.089 369.698 189.857 369.524 189.666 369.309C189.474 369.095 189.327 368.845 189.232 368.574C189.137 368.302 189.097 368.015 189.114 367.728L199.768 167.929C199.776 167.639 199.844 167.354 199.965 167.09C200.087 166.826 200.261 166.59 200.476 166.395C200.691 166.2 200.944 166.051 201.218 165.956C201.493 165.861 201.783 165.822 202.073 165.842C202.655 165.873 203.201 166.133 203.592 166.565C203.983 166.997 204.187 167.566 204.16 168.148L193.506 367.946C193.475 368.505 193.233 369.032 192.829 369.419C192.424 369.806 191.888 370.025 191.328 370.032Z" fill="#C2C4C6"/>
<g style="mix-blend-mode:multiply">
<path d="M191.327 370.032L191.175 370.034C189.982 370.05 200.88 165.833 202.124 165.918C202.706 165.949 203.251 166.209 203.642 166.64C204.033 167.072 204.238 167.641 204.211 168.223L193.505 367.946C193.474 368.505 193.232 369.032 192.828 369.419C192.423 369.806 191.887 370.025 191.327 370.032Z" fill="#C2C4C6"/>
</g>
<path d="M431.611 178.596L201.931 170.284C201.624 170.301 201.317 170.254 201.03 170.146C200.742 170.037 200.481 169.87 200.261 169.655C200.042 169.44 199.87 169.181 199.757 168.895C199.644 168.61 199.591 168.303 199.603 167.996C199.614 167.689 199.69 167.388 199.825 167.112C199.96 166.836 200.151 166.591 200.386 166.393C200.621 166.195 200.895 166.048 201.19 165.962C201.484 165.876 201.794 165.852 202.099 165.893L431.652 174.206C432.194 174.257 432.698 174.506 433.067 174.906C433.437 175.306 433.645 175.829 433.653 176.373C433.66 176.917 433.466 177.445 433.108 177.855C432.75 178.266 432.253 178.529 431.712 178.595L431.611 178.596Z" fill="#C2C4C6"/>
<g style="mix-blend-mode:multiply">
<path d="M199.767 167.929C199.776 167.64 199.842 167.356 199.962 167.093C200.082 166.83 200.253 166.593 200.465 166.396C200.677 166.2 200.926 166.047 201.198 165.948C201.469 165.849 201.758 165.804 202.047 165.817L431.6 174.131C432.183 174.156 432.734 174.408 433.133 174.834C433.533 175.26 433.75 175.826 433.737 176.41C433.729 177.653 199.785 169.223 199.767 167.929Z" fill="#C2C4C6"/>
</g>
<path d="M209.587 166.119L206.572 162.76L195.403 171.542L198.42 175.001C198.936 175.654 201.859 174.192 204.946 171.739C208.032 169.286 210.103 166.771 209.587 166.119Z" fill="url(#paint22_radial_5868_2335)"/>
<path d="M201.225 166.894L195.403 171.542L198.42 175.001C198.807 175.503 200.598 174.768 202.761 173.343C202.35 171.192 201.762 169.043 201.225 166.894Z" fill="url(#paint23_radial_5868_2335)"/>
<path style="mix-blend-mode:multiply" d="M209.587 166.119L206.572 162.761L203.836 164.93C204.374 167.104 204.886 169.304 205.398 171.479C208.232 169.055 210.077 166.746 209.587 166.119Z" fill="url(#paint24_radial_5868_2335)"/>
<path style="mix-blend-mode:screen" opacity="0.4" d="M199.611 174.985C199.94 174.887 200.261 174.764 200.57 174.616C199.358 173.161 198.171 171.732 196.883 170.354L196.055 171C197.292 172.378 198.401 173.682 199.611 174.985Z" fill="url(#paint25_radial_5868_2335)"/>
<path d="M206.571 162.761C207.088 163.413 205.017 165.928 201.93 168.381C198.843 170.834 195.92 172.296 195.404 171.643C194.887 170.991 196.98 168.247 200.042 165.794C203.103 163.341 206.053 162.007 206.571 162.761Z" fill="url(#paint26_radial_5868_2335)"/>
<path style="mix-blend-mode:screen" d="M199.389 166.311C196.882 168.477 195.011 170.786 195.477 171.439C195.943 172.093 196.012 171.61 196.568 171.424C197.324 169.624 198.27 167.91 199.389 166.311Z" fill="url(#paint27_radial_5868_2335)"/>
<path style="mix-blend-mode:multiply" d="M206.468 162.61C205.424 164.436 204.093 166.082 202.527 167.485C201.499 168.387 200.421 169.341 199.264 170.067C200.187 169.489 201.076 168.858 201.927 168.178C205.014 165.725 207.085 163.21 206.569 162.558L206.468 162.61Z" fill="url(#paint28_radial_5868_2335)"/>
<path d="M250.066 188.875C251.357 190.481 246.29 196.539 238.763 202.605C231.235 208.672 224.103 212.145 222.836 210.437C221.57 208.73 226.655 202.189 234.183 196.199C241.712 190.208 248.826 187.294 250.066 188.875Z" fill="url(#paint29_radial_5868_2335)"/>
<path d="M257.439 197.348L250.065 188.875L222.837 210.539L230.185 218.987C231.45 220.594 238.581 217.044 246.111 211.155C253.641 205.266 258.704 198.929 257.439 197.348Z" fill="url(#paint30_radial_5868_2335)"/>
<path d="M250.066 188.875C251.357 190.481 246.29 196.539 238.763 202.605C231.235 208.672 224.103 212.145 222.836 210.437C221.57 208.73 226.655 202.189 234.183 196.199C241.712 190.208 248.826 187.294 250.066 188.875Z" fill="url(#paint31_radial_5868_2335)"/>
<path d="M257.439 197.348L250.065 188.875L222.837 210.539L230.185 218.987C231.45 220.594 238.581 217.044 246.111 211.155C253.641 205.266 258.704 198.929 257.439 197.348Z" fill="url(#paint32_radial_5868_2335)"/>
<path style="mix-blend-mode:multiply" d="M253.675 193.011L246.302 184.563L219.048 206.227L226.422 214.676C227.687 216.282 234.818 212.707 242.348 206.843C249.878 200.98 254.941 194.617 253.675 193.011Z" fill="url(#paint33_radial_5868_2335)"/>
<path d="M271.493 162.394C275.211 167.062 260.389 185.002 238.405 202.483C216.421 219.965 195.557 230.352 191.865 225.684C188.172 221.016 203.049 201.527 225.058 184.045C247.067 166.564 267.8 157.726 271.493 162.394Z" fill="url(#paint34_radial_5868_2335)"/>
<path style="mix-blend-mode:multiply" d="M200.322 207.958C193.386 216.402 190.003 223.172 191.992 225.682C193.98 228.191 201.488 226.184 211.435 220.82C207.471 216.663 203.783 212.35 200.322 207.958Z" fill="url(#paint35_radial_5868_2335)"/>
<path style="mix-blend-mode:multiply" d="M255.079 180.838C256.212 182.04 257.347 183.344 258.503 184.419C268.51 174.132 273.894 165.405 271.493 162.394C269.092 159.383 258.527 162.32 245.188 170.142C248.51 173.673 251.784 177.357 255.079 180.838Z" fill="url(#paint36_radial_5868_2335)"/>
<path d="M270.563 161.214C273.816 165.305 258.633 182.793 236.651 200.402C214.669 218.01 194.215 228.721 190.962 224.63C187.708 220.54 203.05 201.628 225.059 184.172C247.069 166.716 267.335 157.123 270.563 161.214Z" fill="url(#paint37_radial_5868_2335)"/>
<path style="mix-blend-mode:multiply" d="M231.641 192.2C234.125 188.36 236.379 184.396 238.607 180.382C240.29 177.339 241.969 173.992 243.802 170.745C242.469 171.575 241.111 172.456 239.727 173.338L239.405 173.85C235.453 179.766 231.45 185.682 227.344 191.498C228.741 191.911 230.185 192.146 231.641 192.2Z" fill="url(#paint38_radial_5868_2335)"/>
<path style="mix-blend-mode:screen" d="M259.78 166.692C262.361 169.828 250.622 183.234 233.757 196.636C216.893 210.038 201.227 218.348 198.722 215.211C196.218 212.075 207.993 197.602 224.857 184.2C241.721 170.799 257.275 163.555 259.78 166.692Z" fill="url(#paint39_linear_5868_2335)"/>
<path style="mix-blend-mode:multiply" d="M252.16 177.124C253.864 179.257 247.229 187.468 237.039 195.449C226.848 203.43 217.452 208.279 215.746 206.045C214.041 203.81 220.871 195.013 230.909 187.034C240.947 179.055 250.608 174.989 252.16 177.124Z" fill="url(#paint40_linear_5868_2335)"/>
<path d="M245.36 182.521L237.625 173.57L208.763 196.348L216.498 205.299C217.841 206.98 225.375 203.222 233.33 196.896C241.285 190.569 246.701 184.075 245.36 182.521Z" fill="url(#paint41_radial_5868_2335)"/>
<path style="mix-blend-mode:multiply" d="M238.169 192.769C243.405 187.927 246.516 183.621 245.458 182.291L237.722 173.341L234.66 175.768C235.476 181.541 236.671 187.208 238.169 192.769Z" fill="url(#paint42_radial_5868_2335)"/>
<path style="mix-blend-mode:screen" opacity="0.4" d="M219.644 205.255C220.508 204.993 221.351 204.668 222.167 204.281C219.071 200.569 215.974 196.756 212.628 193.326L210.545 195.004C213.469 198.499 216.502 201.916 219.644 205.255Z" fill="url(#paint43_radial_5868_2335)"/>
<path style="mix-blend-mode:screen" opacity="0.4" d="M224.997 196.098C222.881 193.59 220.84 190.954 218.725 188.421L215.31 191.005C218.761 194.687 221.96 198.525 225.212 202.463C226.319 201.813 227.501 201.036 228.707 200.207C227.421 198.957 226.184 197.553 224.997 196.098Z" fill="url(#paint44_radial_5868_2335)"/>
<path d="M237.572 173.444C238.915 175.125 233.55 181.619 225.594 187.945C217.639 194.271 210.105 198.029 208.762 196.348C207.42 194.667 212.726 187.616 220.758 181.289C228.789 174.961 236.229 171.763 237.572 173.444Z" fill="url(#paint45_radial_5868_2335)"/>
<path style="mix-blend-mode:screen" d="M211.524 196.081C211.524 196.081 224.535 192.045 237.052 176.191C231 185.484 222.014 192.485 211.524 196.081Z" fill="url(#paint46_radial_5868_2335)"/>
<path style="mix-blend-mode:multiply" d="M210.827 198.856C202.114 209.126 192.498 221.945 190.648 223.899C190.721 224.115 190.827 224.319 190.961 224.504C191.261 224.869 191.676 225.122 192.138 225.223C198.837 218.001 203.845 209.533 210.082 201.886L211.729 199.884L210.827 198.856Z" fill="url(#paint47_radial_5868_2335)"/>
<path d="M207.379 167.951C207.09 167.965 206.8 167.921 206.527 167.824C206.254 167.726 206.003 167.575 205.788 167.38C205.355 166.986 205.095 166.436 205.067 165.851C205.038 165.266 205.244 164.694 205.637 164.26C206.031 163.827 206.581 163.567 207.166 163.539L513.176 136.085C513.476 136.034 513.783 136.047 514.078 136.121C514.373 136.195 514.649 136.329 514.89 136.515C515.131 136.701 515.33 136.935 515.476 137.202C515.622 137.469 515.711 137.763 515.738 138.066C515.765 138.369 515.729 138.674 515.633 138.962C515.536 139.251 515.381 139.516 515.177 139.741C514.974 139.967 514.725 140.148 514.448 140.273C514.171 140.398 513.871 140.465 513.567 140.468L207.378 167.824L207.379 167.951Z" fill="#C2C4C6"/>
<g style="mix-blend-mode:multiply">
<path d="M205.068 165.928C205.018 165.347 205.199 164.769 205.574 164.322C205.948 163.875 206.484 163.594 207.064 163.54L513.074 136.086C513.655 136.036 514.233 136.218 514.68 136.592C515.127 136.966 515.408 137.502 515.462 138.083C515.58 139.299 205.16 167.093 205.068 165.928Z" fill="#C2C4C6"/>
</g>
<path d="M150.139 431.545L149.683 431.552C149.125 431.437 148.634 431.112 148.31 430.643C147.987 430.175 147.857 429.6 147.948 429.038L196.162 173.18C196.277 172.622 196.601 172.128 197.068 171.8C197.536 171.473 198.11 171.337 198.675 171.42C199.24 171.523 199.742 171.845 200.071 172.315C200.401 172.786 200.531 173.367 200.435 173.933L152.17 429.766C152.076 430.246 151.826 430.681 151.458 431.002C151.091 431.324 150.627 431.515 150.139 431.545Z" fill="#C2C4C6"/>
<g style="mix-blend-mode:multiply">
<path d="M150.138 431.545L149.681 431.552C148.486 431.314 197.656 171.231 198.826 171.444C199.391 171.546 199.893 171.868 200.223 172.338C200.552 172.809 200.683 173.39 200.586 173.956L152.168 429.767C152.075 430.246 151.824 430.681 151.457 431.002C151.089 431.324 150.626 431.515 150.138 431.545Z" fill="#C2C4C6"/>
</g>
<g style="mix-blend-mode:screen">
<path d="M195.496 183.744L150.577 421.111C150.577 421.111 191.774 220.94 195.496 183.744Z" fill="white"/>
</g>
<g style="mix-blend-mode:screen">
<path d="M198.059 227.729L191.078 368.487C191.078 368.487 198.751 277.702 198.059 227.729Z" fill="white"/>
</g>
<g style="mix-blend-mode:screen">
<path d="M272.177 171.468L427.193 176.577C427.193 176.577 316.771 170.749 272.177 171.468Z" fill="white"/>
</g>
<path d="M233.583 163.909L508.117 139.047C508.117 139.047 250.751 165.117 233.583 163.909Z" fill="white"/>
<path style="mix-blend-mode:screen" d="M522.043 149.764C522.043 149.764 390.456 326.78 186.281 428.812C186.281 428.812 410.596 309.907 522.043 149.764Z" fill="url(#paint48_radial_5868_2335)"/>
<g style="mix-blend-mode:multiply">
<path d="M342.199 520.934L341.883 521.928L343.49 520.713L342.199 520.934Z" fill="url(#paint49_linear_5868_2335)"/>
<path d="M610.631 442.013L545.04 366.603L547.364 351.17C539.648 358.305 531.906 365.364 524.213 372.271C514.324 471.662 477.682 570.156 461.086 577.312C456.553 579.543 451.447 580.338 446.45 579.591C441.453 578.845 436.802 576.592 433.119 573.133L375.538 515.423L343.414 520.714L341.807 521.929L374.79 521.903L434.454 588.896C476.675 618.376 557.23 554.212 557.23 554.212C641.316 484.873 610.631 442.013 610.631 442.013Z" fill="url(#paint50_linear_5868_2335)"/>
</g>
<defs>
<radialGradient id="paint0_radial_5868_2335" cx="0" cy="0" r="1" gradientUnits="userSpaceOnUse" gradientTransform="translate(185.595 249.214) rotate(-0.793659) scale(330.564 330.564)">
<stop stop-color="white"/>
<stop offset="0.52" stop-color="#E1F2F2"/>
<stop offset="0.78" stop-color="#828687"/>
<stop offset="1" stop-color="#252727"/>
</radialGradient>
<radialGradient id="paint1_radial_5868_2335" cx="0" cy="0" r="1" gradientUnits="userSpaceOnUse" gradientTransform="translate(181.569 136.264) rotate(-0.793659) scale(412.177 412.177)">
<stop stop-color="white"/>
<stop offset="0.34" stop-color="#EBF6F6"/>
<stop offset="0.52" stop-color="#E1F2F2"/>
<stop offset="0.78" stop-color="#828687"/>
<stop offset="1" stop-color="#252727"/>
</radialGradient>
<radialGradient id="paint2_radial_5868_2335" cx="0" cy="0" r="1" gradientUnits="userSpaceOnUse" gradientTransform="translate(181.569 136.263) rotate(-0.793659) scale(412.177 412.177)">
<stop stop-color="white"/>
<stop offset="0.34" stop-color="#EBF6F6"/>
<stop offset="0.52" stop-color="#E1F2F2"/>
<stop offset="0.78" stop-color="#828687"/>
<stop offset="1" stop-color="#252727"/>
</radialGradient>
<radialGradient id="paint3_radial_5868_2335" cx="0" cy="0" r="1" gradientUnits="userSpaceOnUse" gradientTransform="translate(43.3779 47.1944) rotate(-0.793659) scale(510.331 510.331)">
<stop stop-color="white"/>
<stop offset="0.52" stop-color="#E1F2F2"/>
<stop offset="0.78" stop-color="#828687"/>
<stop offset="1" stop-color="#1C1E1E"/>
</radialGradient>
<radialGradient id="paint4_radial_5868_2335" cx="0" cy="0" r="1" gradientUnits="userSpaceOnUse" gradientTransform="translate(43.3778 47.1943) rotate(-0.793659) scale(510.331 510.331)">
<stop stop-color="white"/>
<stop offset="0.52" stop-color="#E1F2F2"/>
<stop offset="0.78" stop-color="#828687"/>
<stop offset="1" stop-color="#1C1E1E"/>
</radialGradient>
<linearGradient id="paint5_linear_5868_2335" x1="185.997" y1="505.388" x2="192.201" y2="423.859" gradientUnits="userSpaceOnUse">
<stop stop-color="white"/>
<stop offset="0.15" stop-color="#FBFBFB"/>
<stop offset="0.3" stop-color="#EFEFEF"/>
<stop offset="0.45" stop-color="#DADCDC"/>
<stop offset="0.61" stop-color="#BEC0C0"/>
<stop offset="0.76" stop-color="#999D9D"/>
<stop offset="0.84" stop-color="#848989"/>
</linearGradient>
<radialGradient id="paint6_radial_5868_2335" cx="0" cy="0" r="1" gradientUnits="userSpaceOnUse" gradientTransform="translate(43.3777 47.2198) rotate(-0.793659) scale(510.306 510.306)">
<stop stop-color="white"/>
<stop offset="0.52" stop-color="#E1F2F2"/>
<stop offset="0.78" stop-color="#828687"/>
<stop offset="1" stop-color="#1C1E1E"/>
</radialGradient>
<radialGradient id="paint7_radial_5868_2335" cx="0" cy="0" r="1" gradientUnits="userSpaceOnUse" gradientTransform="translate(198.508 64.1758) rotate(-0.793659) scale(537.02 537.02)">
<stop stop-color="white"/>
<stop offset="0.78" stop-color="#E1F2F2"/>
<stop offset="1" stop-color="#68696A"/>
</radialGradient>
<radialGradient id="paint8_radial_5868_2335" cx="0" cy="0" r="1" gradientUnits="userSpaceOnUse" gradientTransform="translate(-0.915559 -84.2271) rotate(-0.793659) scale(607.217 607.217)">
<stop stop-color="white"/>
<stop offset="0.29" stop-color="#FBFDFD"/>
<stop offset="0.59" stop-color="#EFF8F8"/>
<stop offset="0.8" stop-color="#E1F2F2"/>
<stop offset="0.83" stop-color="#D3E2E2"/>
<stop offset="0.94" stop-color="#9AA2A2"/>
<stop offset="1" stop-color="#68696A"/>
</radialGradient>
<linearGradient id="paint9_linear_5868_2335" x1="263.034" y1="229.417" x2="320.231" y2="285.051" gradientUnits="userSpaceOnUse">
<stop stop-color="white"/>
<stop offset="0.15" stop-color="#FBFBFB"/>
<stop offset="0.3" stop-color="#EFEFEF"/>
<stop offset="0.45" stop-color="#DADCDC"/>
<stop offset="0.61" stop-color="#BEC0C0"/>
<stop offset="0.76" stop-color="#999D9D"/>
<stop offset="0.84" stop-color="#848989"/>
</linearGradient>
<radialGradient id="paint10_radial_5868_2335" cx="0" cy="0" r="1" gradientUnits="userSpaceOnUse" gradientTransform="translate(127.793 67.5657) rotate(-0.793659) scale(654.024 654.024)">
<stop stop-color="white"/>
<stop offset="0.28" stop-color="#E1F2F2"/>
<stop offset="0.48" stop-color="#BECBCB"/>
<stop offset="0.71" stop-color="#9BA3A3"/>
<stop offset="0.78" stop-color="#555A5A"/>
<stop offset="0.85" stop-color="#181919"/>
<stop offset="0.88"/>
</radialGradient>
<radialGradient id="paint11_radial_5868_2335" cx="0" cy="0" r="1" gradientUnits="userSpaceOnUse" gradientTransform="translate(317.125 311.71) rotate(-0.793659) scale(208.511)">
<stop stop-color="white"/>
<stop offset="0.52" stop-color="#E1F2F2"/>
<stop offset="0.78" stop-color="#828687"/>
<stop offset="1" stop-color="#252727"/>
</radialGradient>
<radialGradient id="paint12_radial_5868_2335" cx="0" cy="0" r="1" gradientUnits="userSpaceOnUse" gradientTransform="translate(477.296 350.086) rotate(-0.793659) scale(288.197 288.197)">
<stop stop-color="white"/>
<stop offset="0.6" stop-color="#E1F2F2"/>
<stop offset="0.84" stop-color="#575959"/>
</radialGradient>
<radialGradient id="paint13_radial_5868_2335" cx="0" cy="0" r="1" gradientUnits="userSpaceOnUse" gradientTransform="translate(418.675 409.659) rotate(-0.793659) scale(249.635 249.635)">
<stop stop-color="white"/>
<stop offset="0.78" stop-color="#E1F2F2"/>
<stop offset="1" stop-color="#68696A"/>
</radialGradient>
<radialGradient id="paint14_radial_5868_2335" cx="0" cy="0" r="1" gradientUnits="userSpaceOnUse" gradientTransform="translate(276.515 632.947) rotate(-0.793659) scale(141.815 141.816)">
<stop stop-color="white"/>
<stop offset="0.52" stop-color="#E1F2F2"/>
<stop offset="0.78" stop-color="#828687"/>
<stop offset="1" stop-color="#252727"/>
</radialGradient>
<radialGradient id="paint15_radial_5868_2335" cx="0" cy="0" r="1" gradientUnits="userSpaceOnUse" gradientTransform="translate(245.402 612.319) rotate(-0.793659) scale(153.104 153.104)">
<stop stop-color="white"/>
<stop offset="0.52" stop-color="#E1F2F2"/>
<stop offset="0.78" stop-color="#828687"/>
<stop offset="1" stop-color="#252727"/>
</radialGradient>
<linearGradient id="paint16_linear_5868_2335" x1="290.974" y1="521.035" x2="291.04" y2="512.965" gradientUnits="userSpaceOnUse">
<stop offset="0.48" stop-color="white"/>
<stop offset="1" stop-color="#68696A"/>
</linearGradient>
<radialGradient id="paint17_radial_5868_2335" cx="0" cy="0" r="1" gradientUnits="userSpaceOnUse" gradientTransform="translate(264.728 207.015) rotate(-0.793659) scale(416.388 416.388)">
<stop stop-color="white"/>
<stop offset="1"/>
</radialGradient>
<radialGradient id="paint18_radial_5868_2335" cx="0" cy="0" r="1" gradientUnits="userSpaceOnUse" gradientTransform="translate(377.674 308.917) rotate(-0.793659) scale(245.627 245.627)">
<stop stop-color="white"/>
<stop offset="1"/>
</radialGradient>
<radialGradient id="paint19_radial_5868_2335" cx="0" cy="0" r="1" gradientUnits="userSpaceOnUse" gradientTransform="translate(543.013 115.856) rotate(-0.793659) scale(66.7723 66.7723)">
<stop stop-color="white"/>
<stop offset="1"/>
</radialGradient>
<linearGradient id="paint20_linear_5868_2335" x1="256.943" y1="207.301" x2="377.291" y2="314.2" gradientUnits="userSpaceOnUse">
<stop offset="0.48" stop-color="white"/>
<stop offset="1" stop-color="#68696A"/>
</linearGradient>
<radialGradient id="paint21_radial_5868_2335" cx="0" cy="0" r="1" gradientUnits="userSpaceOnUse" gradientTransform="translate(352.822 421.532) rotate(-0.793659) scale(320.441 320.441)">
<stop stop-color="white"/>
<stop offset="0.15" stop-color="#FBFDFD"/>
<stop offset="0.3" stop-color="#EFF8F8"/>
<stop offset="0.4" stop-color="#E1F2F2"/>
<stop offset="0.74" stop-color="#B2BEBE"/>
<stop offset="1" stop-color="#929999"/>
</radialGradient>
<radialGradient id="paint22_radial_5868_2335" cx="0" cy="0" r="1" gradientUnits="userSpaceOnUse" gradientTransform="translate(186.226 172.049) rotate(-0.793659) scale(27.2975 27.2975)">
<stop stop-color="white"/>
<stop offset="0.15" stop-color="#FBFDFD"/>
<stop offset="0.3" stop-color="#EFF8F8"/>
<stop offset="0.4" stop-color="#E1F2F2"/>
<stop offset="0.58" stop-color="#B2BEBE"/>
<stop offset="0.72" stop-color="#929999"/>
<stop offset="0.8" stop-color="#555959"/>
<stop offset="0.89" stop-color="#181919"/>
<stop offset="0.93"/>
</radialGradient>
<radialGradient id="paint23_radial_5868_2335" cx="0" cy="0" r="1" gradientUnits="userSpaceOnUse" gradientTransform="translate(186.226 172.05) rotate(-0.793659) scale(27.2975 27.2975)">
<stop stop-color="white"/>
<stop offset="0.15" stop-color="#FBFDFD"/>
<stop offset="0.3" stop-color="#EFF8F8"/>
<stop offset="0.4" stop-color="#E1F2F2"/>
<stop offset="0.58" stop-color="#B2BEBE"/>
<stop offset="0.72" stop-color="#929999"/>
<stop offset="0.8" stop-color="#555959"/>
<stop offset="0.89" stop-color="#181919"/>
<stop offset="0.93"/>
</radialGradient>
<radialGradient id="paint24_radial_5868_2335" cx="0" cy="0" r="1" gradientUnits="userSpaceOnUse" gradientTransform="translate(203.796 160.186) rotate(-0.793659) scale(17.2512 17.2512)">
<stop stop-color="white"/>
<stop offset="0.15" stop-color="#FBFDFD"/>
<stop offset="0.3" stop-color="#EFF8F8"/>
<stop offset="0.4" stop-color="#E1F2F2"/>
<stop offset="0.58" stop-color="#B2BEBE"/>
<stop offset="0.72" stop-color="#929999"/>
<stop offset="0.8" stop-color="#555959"/>
<stop offset="0.89" stop-color="#181919"/>
<stop offset="0.93"/>
</radialGradient>
<radialGradient id="paint25_radial_5868_2335" cx="0" cy="0" r="1" gradientUnits="userSpaceOnUse" gradientTransform="translate(197.445 176.106) rotate(-0.793659) scale(16.3633 16.3633)">
<stop stop-color="white"/>
<stop offset="0.15" stop-color="#FBFDFD"/>
<stop offset="0.3" stop-color="#EFF8F8"/>
<stop offset="0.4" stop-color="#E1F2F2"/>
<stop offset="0.58" stop-color="#B2BEBE"/>
<stop offset="0.72" stop-color="#929999"/>
<stop offset="0.8" stop-color="#555959"/>
<stop offset="0.89" stop-color="#181919"/>
<stop offset="0.93"/>
</radialGradient>
<radialGradient id="paint26_radial_5868_2335" cx="0" cy="0" r="1" gradientUnits="userSpaceOnUse" gradientTransform="translate(172.714 141.816) rotate(-0.793659) scale(40.5657 40.5657)">
<stop stop-color="white"/>
<stop offset="0.29" stop-color="#FBFDFD"/>
<stop offset="0.59" stop-color="#EFF8F8"/>
<stop offset="0.8" stop-color="#E1F2F2"/>
<stop offset="0.83" stop-color="#D3E2E2"/>
<stop offset="0.94" stop-color="#9AA2A2"/>
<stop offset="1" stop-color="#68696A"/>
</radialGradient>
<radialGradient id="paint27_radial_5868_2335" cx="0" cy="0" r="1" gradientUnits="userSpaceOnUse" gradientTransform="translate(174.726 144.224) rotate(-0.793659) scale(37.0647 37.0647)">
<stop stop-color="white"/>
<stop offset="0.78" stop-color="#E1F2F2"/>
<stop offset="1" stop-color="#68696A"/>
</radialGradient>
<radialGradient id="paint28_radial_5868_2335" cx="0" cy="0" r="1" gradientUnits="userSpaceOnUse" gradientTransform="translate(172.689 141.816) rotate(-0.793659) scale(40.591 40.5911)">
<stop stop-color="white"/>
<stop offset="0.29" stop-color="#FBFDFD"/>
<stop offset="0.59" stop-color="#EFF8F8"/>
<stop offset="0.8" stop-color="#E1F2F2"/>
<stop offset="0.83" stop-color="#D3E2E2"/>
<stop offset="0.94" stop-color="#9AA2A2"/>
<stop offset="1" stop-color="#68696A"/>
</radialGradient>
<radialGradient id="paint29_radial_5868_2335" cx="0" cy="0" r="1" gradientUnits="userSpaceOnUse" gradientTransform="translate(236.465 199.694) rotate(-0.793659) scale(12.5832 12.5832)">
<stop stop-color="white"/>
<stop offset="0.29" stop-color="#FBFDFD"/>
<stop offset="0.59" stop-color="#EFF8F8"/>
<stop offset="0.8" stop-color="#E1F2F2"/>
<stop offset="0.83" stop-color="#D3E2E2"/>
<stop offset="0.94" stop-color="#9AA2A2"/>
<stop offset="1" stop-color="#68696A"/>
</radialGradient>
<radialGradient id="paint30_radial_5868_2335" cx="0" cy="0" r="1" gradientUnits="userSpaceOnUse" gradientTransform="translate(240.229 204.132) rotate(-0.793659) scale(16.3379 16.3379)">
<stop stop-color="white"/>
<stop offset="0.29" stop-color="#FBFDFD"/>
<stop offset="0.59" stop-color="#EFF8F8"/>
<stop offset="0.8" stop-color="#E1F2F2"/>
<stop offset="0.83" stop-color="#D3E2E2"/>
<stop offset="0.94" stop-color="#9AA2A2"/>
<stop offset="1" stop-color="#68696A"/>
</radialGradient>
<radialGradient id="paint31_radial_5868_2335" cx="0" cy="0" r="1" gradientUnits="userSpaceOnUse" gradientTransform="translate(236.465 199.694) rotate(-0.793659) scale(12.5832 12.5832)">
<stop stop-color="white"/>
<stop offset="0.29" stop-color="#FBFDFD"/>
<stop offset="0.59" stop-color="#EFF8F8"/>
<stop offset="0.8" stop-color="#E1F2F2"/>
<stop offset="0.83" stop-color="#D3E2E2"/>
<stop offset="0.94" stop-color="#9AA2A2"/>
<stop offset="1" stop-color="#68696A"/>
</radialGradient>
<radialGradient id="paint32_radial_5868_2335" cx="0" cy="0" r="1" gradientUnits="userSpaceOnUse" gradientTransform="translate(187.719 276.256) rotate(-0.793659) scale(107.211 107.211)">
<stop stop-color="white"/>
<stop offset="0.15" stop-color="#FBFDFD"/>
<stop offset="0.3" stop-color="#EFF8F8"/>
<stop offset="0.4" stop-color="#E1F2F2"/>
<stop offset="0.58" stop-color="#B2BEBE"/>
<stop offset="0.72" stop-color="#929999"/>
<stop offset="0.8" stop-color="#555959"/>
<stop offset="0.89" stop-color="#181919"/>
<stop offset="0.93"/>
</radialGradient>
<radialGradient id="paint33_radial_5868_2335" cx="0" cy="0" r="1" gradientUnits="userSpaceOnUse" gradientTransform="translate(183.956 271.945) rotate(-0.793659) scale(107.211 107.211)">
<stop stop-color="white"/>
<stop offset="0.15" stop-color="#FBFDFD"/>
<stop offset="0.3" stop-color="#EFF8F8"/>
<stop offset="0.4" stop-color="#E1F2F2"/>
<stop offset="0.58" stop-color="#B2BEBE"/>
<stop offset="0.72" stop-color="#929999"/>
<stop offset="0.8" stop-color="#555959"/>
<stop offset="0.89" stop-color="#181919"/>
<stop offset="0.93"/>
</radialGradient>
<radialGradient id="paint34_radial_5868_2335" cx="0" cy="0" r="1" gradientUnits="userSpaceOnUse" gradientTransform="translate(192.003 136.779) rotate(-0.793659) scale(83.5415 83.5415)">
<stop stop-color="white"/>
<stop offset="0.29" stop-color="#FBFDFD"/>
<stop offset="0.59" stop-color="#EFF8F8"/>
<stop offset="0.8" stop-color="#E1F2F2"/>
<stop offset="0.83" stop-color="#D3E2E2"/>
<stop offset="0.94" stop-color="#9AA2A2"/>
<stop offset="1" stop-color="#68696A"/>
</radialGradient>
<radialGradient id="paint35_radial_5868_2335" cx="0" cy="0" r="1" gradientUnits="userSpaceOnUse" gradientTransform="translate(192.003 136.779) rotate(-0.793659) scale(83.5161 83.5162)">
<stop stop-color="white"/>
<stop offset="0.29" stop-color="#FBFDFD"/>
<stop offset="0.59" stop-color="#EFF8F8"/>
<stop offset="0.8" stop-color="#E1F2F2"/>
<stop offset="0.83" stop-color="#D3E2E2"/>
<stop offset="0.94" stop-color="#9AA2A2"/>
<stop offset="1" stop-color="#68696A"/>
</radialGradient>
<radialGradient id="paint36_radial_5868_2335" cx="0" cy="0" r="1" gradientUnits="userSpaceOnUse" gradientTransform="translate(192.003 136.753) rotate(-0.793659) scale(83.5415 83.5415)">
<stop stop-color="white"/>
<stop offset="0.29" stop-color="#FBFDFD"/>
<stop offset="0.59" stop-color="#EFF8F8"/>
<stop offset="0.8" stop-color="#E1F2F2"/>
<stop offset="0.83" stop-color="#D3E2E2"/>
<stop offset="0.94" stop-color="#9AA2A2"/>
<stop offset="1" stop-color="#68696A"/>
</radialGradient>
<radialGradient id="paint37_radial_5868_2335" cx="0" cy="0" r="1" gradientUnits="userSpaceOnUse" gradientTransform="translate(186.823 154.763) rotate(-0.793659) scale(182.914 182.914)">
<stop stop-color="white"/>
<stop offset="0.78" stop-color="#E1F2F2"/>
<stop offset="1" stop-color="#68696A"/>
</radialGradient>
<radialGradient id="paint38_radial_5868_2335" cx="0" cy="0" r="1" gradientUnits="userSpaceOnUse" gradientTransform="translate(186.824 154.763) rotate(-0.793659) scale(182.888 182.888)">
<stop stop-color="white"/>
<stop offset="0.15" stop-color="#FBFDFD"/>
<stop offset="0.3" stop-color="#EFF8F8"/>
<stop offset="0.4" stop-color="#E1F2F2"/>
<stop offset="0.58" stop-color="#B2BEBE"/>
<stop offset="0.72" stop-color="#929999"/>
<stop offset="0.8" stop-color="#555959"/>
<stop offset="0.89" stop-color="#181919"/>
<stop offset="0.93"/>
</radialGradient>
<linearGradient id="paint39_linear_5868_2335" x1="198.087" y1="191.345" x2="260.414" y2="190.482" gradientUnits="userSpaceOnUse">
<stop stop-color="white"/>
<stop offset="0.15" stop-color="#FBFBFB"/>
<stop offset="0.3" stop-color="#EFEFEF"/>
<stop offset="0.45" stop-color="#DADCDC"/>
<stop offset="0.61" stop-color="#BEC0C0"/>
<stop offset="0.76" stop-color="#999D9D"/>
<stop offset="0.84" stop-color="#848989"/>
</linearGradient>
<linearGradient id="paint40_linear_5868_2335" x1="225.336" y1="163.871" x2="235.4" y2="196.207" gradientUnits="userSpaceOnUse">
<stop offset="0.48" stop-color="white"/>
<stop offset="1" stop-color="#68696A"/>
</linearGradient>
<radialGradient id="paint41_radial_5868_2335" cx="0" cy="0" r="1" gradientUnits="userSpaceOnUse" gradientTransform="translate(202.217 161.552) rotate(-0.793659) scale(73.8757 73.8757)">
<stop stop-color="white"/>
<stop offset="0.15" stop-color="#FBFDFD"/>
<stop offset="0.3" stop-color="#EFF8F8"/>
<stop offset="0.4" stop-color="#E1F2F2"/>
<stop offset="0.58" stop-color="#B2BEBE"/>
<stop offset="0.72" stop-color="#929999"/>
<stop offset="0.8" stop-color="#555959"/>
<stop offset="0.89" stop-color="#181919"/>
<stop offset="0.93"/>
</radialGradient>
<radialGradient id="paint42_radial_5868_2335" cx="0" cy="0" r="1" gradientUnits="userSpaceOnUse" gradientTransform="translate(215.459 179.814) rotate(-0.793659) scale(39.7032 39.7031)">
<stop stop-color="white"/>
<stop offset="0.15" stop-color="#FBFDFD"/>
<stop offset="0.3" stop-color="#EFF8F8"/>
<stop offset="0.4" stop-color="#E1F2F2"/>
<stop offset="0.58" stop-color="#B2BEBE"/>
<stop offset="0.72" stop-color="#929999"/>
<stop offset="0.8" stop-color="#555959"/>
<stop offset="0.89" stop-color="#181919"/>
<stop offset="0.93"/>
</radialGradient>
<radialGradient id="paint43_radial_5868_2335" cx="0" cy="0" r="1" gradientUnits="userSpaceOnUse" gradientTransform="translate(214.025 208.124) rotate(-0.793659) scale(42.1893 42.1893)">
<stop stop-color="white"/>
<stop offset="0.15" stop-color="#FBFDFD"/>
<stop offset="0.3" stop-color="#EFF8F8"/>
<stop offset="0.4" stop-color="#E1F2F2"/>
<stop offset="0.58" stop-color="#B2BEBE"/>
<stop offset="0.72" stop-color="#929999"/>
<stop offset="0.8" stop-color="#555959"/>
<stop offset="0.89" stop-color="#181919"/>
<stop offset="0.93"/>
</radialGradient>
<radialGradient id="paint44_radial_5868_2335" cx="0" cy="0" r="1" gradientUnits="userSpaceOnUse" gradientTransform="translate(214.025 208.124) rotate(-0.793659) scale(42.2147 42.2147)">
<stop stop-color="white"/>
<stop offset="0.15" stop-color="#FBFDFD"/>
<stop offset="0.3" stop-color="#EFF8F8"/>
<stop offset="0.4" stop-color="#E1F2F2"/>
<stop offset="0.58" stop-color="#B2BEBE"/>
<stop offset="0.72" stop-color="#929999"/>
<stop offset="0.8" stop-color="#555959"/>
<stop offset="0.89" stop-color="#181919"/>
<stop offset="0.93"/>
</radialGradient>
<radialGradient id="paint45_radial_5868_2335" cx="0" cy="0" r="1" gradientUnits="userSpaceOnUse" gradientTransform="translate(183.773 141.561) rotate(-0.793659) scale(87.626 87.626)">
<stop stop-color="white"/>
<stop offset="0.29" stop-color="#FBFDFD"/>
<stop offset="0.59" stop-color="#EFF8F8"/>
<stop offset="0.8" stop-color="#E1F2F2"/>
<stop offset="0.83" stop-color="#D3E2E2"/>
<stop offset="0.94" stop-color="#9AA2A2"/>
<stop offset="1" stop-color="#68696A"/>
</radialGradient>
<radialGradient id="paint46_radial_5868_2335" cx="0" cy="0" r="1" gradientUnits="userSpaceOnUse" gradientTransform="translate(210.363 174.531) rotate(-0.793659) scale(57.0812 57.0812)">
<stop stop-color="white"/>
<stop offset="0.78" stop-color="#E1F2F2"/>
<stop offset="1" stop-color="#68696A"/>
</radialGradient>
<radialGradient id="paint47_radial_5868_2335" cx="0" cy="0" r="1" gradientUnits="userSpaceOnUse" gradientTransform="translate(197.744 203.173) rotate(-0.793659) scale(38.9167 38.9167)">
<stop stop-color="white"/>
<stop offset="0.15" stop-color="#FBFDFD"/>
<stop offset="0.3" stop-color="#EFF8F8"/>
<stop offset="0.4" stop-color="#E1F2F2"/>
<stop offset="0.58" stop-color="#B2BEBE"/>
<stop offset="0.72" stop-color="#929999"/>
<stop offset="0.8" stop-color="#555959"/>
<stop offset="0.89" stop-color="#181919"/>
<stop offset="0.93"/>
</radialGradient>
<radialGradient id="paint48_radial_5868_2335" cx="0" cy="0" r="1" gradientUnits="userSpaceOnUse" gradientTransform="translate(232.602 153.469) rotate(-0.793659) scale(404.845 404.845)">
<stop stop-color="white"/>
<stop offset="1"/>
</radialGradient>
<linearGradient id="paint49_linear_5868_2335" x1="333.903" y1="519.146" x2="602.031" y2="584.95" gradientUnits="userSpaceOnUse">
<stop offset="0.48" stop-color="white"/>
<stop offset="1" stop-color="#68696A"/>
</linearGradient>
<linearGradient id="paint50_linear_5868_2335" x1="336.204" y1="447.134" x2="678.883" y2="502.569" gradientUnits="userSpaceOnUse">
<stop offset="0.48" stop-color="white"/>
<stop offset="1" stop-color="#68696A"/>
</linearGradient>
</defs>
</svg>
