<svg xmlns="http://www.w3.org/2000/svg" xmlns:xlink="http://www.w3.org/1999/xlink" viewBox="0 0 111.15 193.46"><defs><style>.cls-1{isolation:isolate;}.cls-2{fill:url(#radial-gradient);}.cls-3{fill:url(#radial-gradient-2);}.cls-4{fill:url(#radial-gradient-3);}.cls-5{fill:url(#radial-gradient-4);}.cls-6{fill:url(#linear-gradient);}.cls-7{fill:url(#linear-gradient-2);}.cls-8{fill:url(#linear-gradient-3);}.cls-10,.cls-12,.cls-13,.cls-18,.cls-19,.cls-28,.cls-30,.cls-32,.cls-35,.cls-38,.cls-41,.cls-44,.cls-47,.cls-50,.cls-53,.cls-56,.cls-59,.cls-62,.cls-65,.cls-68,.cls-71,.cls-74,.cls-77,.cls-80,.cls-83,.cls-9{mix-blend-mode:multiply;}.cls-9{fill:url(#radial-gradient-5);}.cls-10{fill:url(#linear-gradient-4);}.cls-11{fill:url(#linear-gradient-5);}.cls-12{fill:url(#radial-gradient-6);}.cls-13{fill:url(#linear-gradient-6);}.cls-14{fill:url(#linear-gradient-7);}.cls-15{fill:url(#radial-gradient-7);}.cls-16{fill:url(#radial-gradient-8);}.cls-17{fill:url(#radial-gradient-9);}.cls-18{fill:url(#radial-gradient-10);}.cls-19{fill:url(#radial-gradient-11);}.cls-20{fill:url(#radial-gradient-12);}.cls-21{fill:url(#radial-gradient-13);}.cls-22{fill:url(#radial-gradient-14);}.cls-23{fill:url(#linear-gradient-8);}.cls-24{fill:url(#radial-gradient-15);}.cls-25,.cls-26{fill:#fff;}.cls-26{opacity:0.4;}.cls-27{opacity:0.6;}.cls-28{fill:url(#linear-gradient-9);}.cls-29{fill:url(#radial-gradient-16);}.cls-31{fill:url(#radial-gradient-17);}.cls-32{fill:url(#linear-gradient-10);}.cls-33{fill:url(#radial-gradient-18);}.cls-34{fill:url(#radial-gradient-19);}.cls-35{fill:url(#linear-gradient-11);}.cls-36{fill:url(#radial-gradient-20);}.cls-37{fill:url(#radial-gradient-21);}.cls-38{fill:url(#linear-gradient-12);}.cls-39{fill:url(#radial-gradient-22);}.cls-40{fill:url(#radial-gradient-23);}.cls-41{fill:url(#linear-gradient-13);}.cls-42{fill:url(#radial-gradient-24);}.cls-43{fill:url(#radial-gradient-25);}.cls-44{fill:url(#linear-gradient-14);}.cls-45{fill:url(#radial-gradient-26);}.cls-46{fill:url(#radial-gradient-27);}.cls-47{fill:url(#linear-gradient-15);}.cls-48{fill:url(#radial-gradient-28);}.cls-49{fill:url(#radial-gradient-29);}.cls-50{fill:url(#linear-gradient-16);}.cls-51{fill:url(#radial-gradient-30);}.cls-52{fill:url(#radial-gradient-31);}.cls-53{fill:url(#linear-gradient-17);}.cls-54{fill:url(#radial-gradient-32);}.cls-55{fill:url(#radial-gradient-33);}.cls-56{fill:url(#linear-gradient-18);}.cls-57{fill:url(#radial-gradient-34);}.cls-58{fill:url(#radial-gradient-35);}.cls-59{fill:url(#linear-gradient-19);}.cls-60{fill:url(#radial-gradient-36);}.cls-61{fill:url(#radial-gradient-37);}.cls-62{fill:url(#linear-gradient-20);}.cls-63{fill:url(#radial-gradient-38);}.cls-64{fill:url(#radial-gradient-39);}.cls-65{fill:url(#linear-gradient-21);}.cls-66{fill:url(#radial-gradient-40);}.cls-67{fill:url(#radial-gradient-41);}.cls-68{fill:url(#linear-gradient-22);}.cls-69{fill:url(#radial-gradient-42);}.cls-70{fill:url(#radial-gradient-43);}.cls-71{fill:url(#linear-gradient-23);}.cls-72{fill:url(#radial-gradient-44);}.cls-73{fill:url(#radial-gradient-45);}.cls-74{fill:url(#linear-gradient-24);}.cls-75{fill:url(#radial-gradient-46);}.cls-76{fill:url(#radial-gradient-47);}.cls-77{fill:url(#linear-gradient-25);}.cls-78{fill:url(#radial-gradient-48);}.cls-79{fill:url(#radial-gradient-49);}.cls-80{fill:url(#linear-gradient-26);}.cls-81{fill:url(#radial-gradient-50);}.cls-82{fill:url(#radial-gradient-51);}.cls-83{fill:url(#linear-gradient-27);}</style><radialGradient id="radial-gradient" cx="-13.01" cy="111.02" r="49.48" gradientUnits="userSpaceOnUse"><stop offset="0" stop-color="#fff"/><stop offset="0.78" stop-color="#e1f2f2"/><stop offset="1" stop-color="#848989"/><stop offset="1" stop-color="#68696a"/></radialGradient><radialGradient id="radial-gradient-2" cx="-5.69" cy="-16.42" r="82.19" gradientUnits="userSpaceOnUse"><stop offset="0" stop-color="#fff"/><stop offset="0.52" stop-color="#e1f2f2"/><stop offset="0.78" stop-color="#828687"/><stop offset="1" stop-color="#252727"/></radialGradient><radialGradient id="radial-gradient-3" cx="-60.83" cy="177.14" r="143.91" xlink:href="#radial-gradient"/><radialGradient id="radial-gradient-4" cx="51.51" cy="120.68" r="76.07" gradientUnits="userSpaceOnUse"><stop offset="0" stop-color="#fff"/><stop offset="0.52" stop-color="#e1f2f2"/><stop offset="0.78" stop-color="#828687"/><stop offset="1" stop-color="#3f4142"/></radialGradient><linearGradient id="linear-gradient" x1="50.28" y1="94.36" x2="71.87" y2="75.86" gradientUnits="userSpaceOnUse"><stop offset="0" stop-color="#fff"/><stop offset="0.22" stop-color="#fbfdfd"/><stop offset="0.43" stop-color="#eff8f8"/><stop offset="0.59" stop-color="#e1f2f2"/><stop offset="0.64" stop-color="#daeaea"/><stop offset="0.73" stop-color="#c8d6d6"/><stop offset="0.83" stop-color="#aab3b4"/><stop offset="0.94" stop-color="#808485"/><stop offset="1" stop-color="#68696a"/></linearGradient><linearGradient id="linear-gradient-2" x1="20.51" y1="121.07" x2="40.18" y2="54.75" gradientUnits="userSpaceOnUse"><stop offset="0" stop-color="#fff"/><stop offset="0.52" stop-color="#e1f2f2"/><stop offset="1" stop-color="#68696a"/></linearGradient><linearGradient id="linear-gradient-3" x1="47.52" y1="106.53" x2="47.52" y2="94.56" xlink:href="#linear-gradient-2"/><radialGradient id="radial-gradient-5" cx="41.12" cy="132.79" r="57.51" gradientUnits="userSpaceOnUse"><stop offset="0" stop-color="#fff"/><stop offset="0.68" stop-color="#e1f2f2"/><stop offset="0.73" stop-color="#d3e2e2"/><stop offset="0.91" stop-color="#9aa2a2"/><stop offset="1" stop-color="#848989"/><stop offset="1" stop-color="#525354"/></radialGradient><linearGradient id="linear-gradient-4" x1="43.13" y1="80.53" x2="50.8" y2="111.33" gradientUnits="userSpaceOnUse"><stop offset="0.48" stop-color="#fff"/><stop offset="1" stop-color="#68696a"/></linearGradient><linearGradient id="linear-gradient-5" x1="47.52" y1="122.79" x2="47.52" y2="98.1" xlink:href="#linear-gradient"/><radialGradient id="radial-gradient-6" cx="51.25" cy="122.35" r="32.31" xlink:href="#radial-gradient-5"/><linearGradient id="linear-gradient-6" x1="47.16" y1="105.62" x2="47.74" y2="97.91" xlink:href="#linear-gradient-4"/><linearGradient id="linear-gradient-7" x1="-36.23" y1="137.2" x2="114.01" y2="180.13" xlink:href="#linear-gradient-2"/><radialGradient id="radial-gradient-7" cx="-111.98" cy="150.48" r="186.85" gradientUnits="userSpaceOnUse"><stop offset="0" stop-color="#fff"/><stop offset="0.68" stop-color="#e1f2f2"/><stop offset="0.73" stop-color="#d3e2e2"/><stop offset="0.91" stop-color="#9aa2a2"/><stop offset="1" stop-color="#848989"/><stop offset="1" stop-color="#68696a"/></radialGradient><radialGradient id="radial-gradient-8" cx="-58" cy="94.67" r="266.71" gradientUnits="userSpaceOnUse"><stop offset="0" stop-color="#fff"/><stop offset="0.49" stop-color="#e1f2f2"/><stop offset="0.67" stop-color="#b0baba"/><stop offset="0.79" stop-color="#919898"/><stop offset="1" stop-color="#848989"/><stop offset="1" stop-color="#68696a"/></radialGradient><radialGradient id="radial-gradient-9" cx="-28.5" cy="238.59" r="196.65" xlink:href="#radial-gradient-5"/><radialGradient id="radial-gradient-10" cx="20.62" cy="203.1" r="108.08" xlink:href="#radial-gradient-5"/><radialGradient id="radial-gradient-11" cx="9.33" cy="238.59" r="165.74" xlink:href="#radial-gradient-5"/><radialGradient id="radial-gradient-12" cx="84.45" cy="252.65" r="188.98" gradientUnits="userSpaceOnUse"><stop offset="0" stop-color="#fff"/><stop offset="0.78" stop-color="#e1f2f2"/><stop offset="0.81" stop-color="#d3e2e2"/><stop offset="0.94" stop-color="#9aa2a2"/><stop offset="1" stop-color="#848989"/><stop offset="1" stop-color="#68696a"/></radialGradient><radialGradient id="radial-gradient-13" cx="94.31" cy="386.77" r="141.19" gradientTransform="translate(0 -291.49) scale(1 1.41)" xlink:href="#radial-gradient-12"/><radialGradient id="radial-gradient-14" cx="7.14" cy="65.44" r="130.98" xlink:href="#radial-gradient"/><linearGradient id="linear-gradient-8" x1="1.72" y1="110.22" x2="91.56" y2="210.09" xlink:href="#linear-gradient-2"/><radialGradient id="radial-gradient-15" cx="20.64" cy="93.21" r="134.33" xlink:href="#radial-gradient"/><linearGradient id="linear-gradient-9" x1="55.17" y1="67.63" x2="57.07" y2="69.53" xlink:href="#linear-gradient-4"/><radialGradient id="radial-gradient-16" cx="54.97" cy="66.48" r="4.48" xlink:href="#linear-gradient-2"/><radialGradient id="radial-gradient-17" cx="60.56" cy="63.61" r="1.96" gradientTransform="translate(-5.82 13.77) scale(1.02 0.86)" xlink:href="#linear-gradient-2"/><linearGradient id="linear-gradient-10" x1="55.17" y1="73.85" x2="57.07" y2="75.76" xlink:href="#linear-gradient-4"/><radialGradient id="radial-gradient-18" cx="60.82" cy="69.62" r="2.93" gradientTransform="translate(-5.82 13.77) scale(1.02 0.86)" xlink:href="#linear-gradient-2"/><radialGradient id="radial-gradient-19" cx="60.56" cy="70.87" r="1.96" gradientTransform="translate(-5.82 13.77) scale(1.02 0.86)" xlink:href="#linear-gradient-2"/><linearGradient id="linear-gradient-11" x1="70.14" y1="92.89" x2="72.05" y2="94.79" xlink:href="#linear-gradient-4"/><radialGradient id="radial-gradient-20" cx="75.53" cy="91.83" r="2.92" gradientTransform="translate(-5.82 13.77) scale(1.02 0.86)" xlink:href="#linear-gradient-2"/><radialGradient id="radial-gradient-21" cx="75.26" cy="93.08" r="1.96" gradientTransform="translate(-5.82 13.77) scale(1.02 0.86)" xlink:href="#linear-gradient-2"/><linearGradient id="linear-gradient-12" x1="77.63" y1="92.89" x2="79.53" y2="94.8" xlink:href="#linear-gradient-4"/><radialGradient id="radial-gradient-22" cx="82.88" cy="91.83" r="2.92" gradientTransform="translate(-5.82 13.77) scale(1.02 0.86)" xlink:href="#linear-gradient-2"/><radialGradient id="radial-gradient-23" cx="82.61" cy="93.08" r="1.96" gradientTransform="translate(-5.82 13.77) scale(1.02 0.86)" xlink:href="#linear-gradient-2"/><linearGradient id="linear-gradient-13" x1="55.17" y1="92.89" x2="57.07" y2="94.79" xlink:href="#linear-gradient-4"/><radialGradient id="radial-gradient-24" cx="55.2" cy="92.51" r="2.68" xlink:href="#linear-gradient-2"/><radialGradient id="radial-gradient-25" cx="60.56" cy="93.08" r="1.96" gradientTransform="translate(-5.82 13.77) scale(1.02 0.86)" xlink:href="#linear-gradient-2"/><linearGradient id="linear-gradient-14" x1="18.92" y1="92.89" x2="20.82" y2="94.8" xlink:href="#linear-gradient-4"/><radialGradient id="radial-gradient-26" cx="25.23" cy="91.83" r="2.92" gradientTransform="translate(-5.82 13.77) scale(1.02 0.86)" xlink:href="#linear-gradient-2"/><radialGradient id="radial-gradient-27" cx="24.96" cy="93.08" r="1.96" gradientTransform="translate(-5.82 13.77) scale(1.02 0.86)" xlink:href="#linear-gradient-2"/><linearGradient id="linear-gradient-15" x1="26.4" y1="92.89" x2="28.31" y2="94.8" xlink:href="#linear-gradient-4"/><radialGradient id="radial-gradient-28" cx="32.58" cy="91.83" r="2.92" gradientTransform="translate(-5.82 13.77) scale(1.02 0.86)" xlink:href="#linear-gradient-2"/><radialGradient id="radial-gradient-29" cx="32.32" cy="93.08" r="1.96" gradientTransform="translate(-5.82 13.77) scale(1.02 0.86)" xlink:href="#linear-gradient-2"/><linearGradient id="linear-gradient-16" x1="33.89" y1="92.89" x2="35.79" y2="94.8" xlink:href="#linear-gradient-4"/><radialGradient id="radial-gradient-30" cx="39.93" cy="91.83" r="2.92" gradientTransform="translate(-5.82 13.77) scale(1.02 0.86)" xlink:href="#linear-gradient-2"/><radialGradient id="radial-gradient-31" cx="39.67" cy="93.08" r="1.96" gradientTransform="translate(-5.82 13.77) scale(1.02 0.86)" xlink:href="#linear-gradient-2"/><linearGradient id="linear-gradient-17" x1="11.43" y1="92.89" x2="13.34" y2="94.8" xlink:href="#linear-gradient-4"/><radialGradient id="radial-gradient-32" cx="11.46" cy="92.51" r="2.68" xlink:href="#linear-gradient-2"/><radialGradient id="radial-gradient-33" cx="17.61" cy="93.08" r="1.96" gradientTransform="translate(-5.82 13.77) scale(1.02 0.86)" xlink:href="#linear-gradient-2"/><linearGradient id="linear-gradient-18" x1="49.1" y1="92.89" x2="51.01" y2="94.8" xlink:href="#linear-gradient-4"/><radialGradient id="radial-gradient-34" cx="54.87" cy="91.83" r="2.92" gradientTransform="translate(-5.82 13.77) scale(1.02 0.86)" xlink:href="#linear-gradient-2"/><radialGradient id="radial-gradient-35" cx="54.6" cy="93.08" r="1.96" gradientTransform="translate(-5.82 13.77) scale(1.02 0.86)" xlink:href="#linear-gradient-2"/><linearGradient id="linear-gradient-19" x1="64.08" y1="92.89" x2="65.98" y2="94.79" xlink:href="#linear-gradient-4"/><radialGradient id="radial-gradient-36" cx="69.57" cy="91.83" r="2.92" gradientTransform="translate(-5.82 13.77) scale(1.02 0.86)" xlink:href="#linear-gradient-2"/><radialGradient id="radial-gradient-37" cx="69.3" cy="93.08" r="1.96" gradientTransform="translate(-5.82 13.77) scale(1.02 0.86)" xlink:href="#linear-gradient-2"/><linearGradient id="linear-gradient-20" x1="41.62" y1="92.89" x2="43.52" y2="94.8" xlink:href="#linear-gradient-4"/><radialGradient id="radial-gradient-38" cx="41.65" cy="92.51" r="2.68" xlink:href="#linear-gradient-2"/><radialGradient id="radial-gradient-39" cx="47.25" cy="93.08" r="1.96" gradientTransform="translate(-5.82 13.77) scale(1.02 0.86)" xlink:href="#linear-gradient-2"/><linearGradient id="linear-gradient-21" x1="55.17" y1="86.67" x2="57.07" y2="88.57" xlink:href="#linear-gradient-4"/><radialGradient id="radial-gradient-40" cx="62.71" cy="83.87" r="4.52" gradientTransform="translate(-5.82 13.77) scale(1.02 0.86)" xlink:href="#linear-gradient-2"/><radialGradient id="radial-gradient-41" cx="60.56" cy="85.82" r="1.96" gradientTransform="translate(-5.82 13.77) scale(1.02 0.86)" xlink:href="#linear-gradient-2"/><linearGradient id="linear-gradient-22" x1="55.17" y1="80.08" x2="57.07" y2="81.98" xlink:href="#linear-gradient-4"/><radialGradient id="radial-gradient-42" cx="61.19" cy="77.07" r="2.78" gradientTransform="translate(-5.82 13.77) scale(1.02 0.86)" xlink:href="#linear-gradient-2"/><radialGradient id="radial-gradient-43" cx="60.56" cy="78.14" r="1.96" gradientTransform="translate(-5.82 13.77) scale(1.02 0.86)" xlink:href="#linear-gradient-2"/><linearGradient id="linear-gradient-23" x1="10.96" y1="67.63" x2="12.86" y2="69.53" xlink:href="#linear-gradient-4"/><radialGradient id="radial-gradient-44" cx="10.76" cy="66.48" r="4.47" xlink:href="#linear-gradient-2"/><radialGradient id="radial-gradient-45" cx="17.15" cy="63.61" r="1.96" gradientTransform="translate(-5.82 13.77) scale(1.02 0.86)" xlink:href="#linear-gradient-2"/><linearGradient id="linear-gradient-24" x1="10.96" y1="73.85" x2="12.86" y2="75.76" xlink:href="#linear-gradient-4"/><radialGradient id="radial-gradient-46" cx="17.41" cy="69.62" r="2.92" gradientTransform="translate(-5.82 13.77) scale(1.02 0.86)" xlink:href="#linear-gradient-2"/><radialGradient id="radial-gradient-47" cx="17.15" cy="70.87" r="1.96" gradientTransform="translate(-5.82 13.77) scale(1.02 0.86)" xlink:href="#linear-gradient-2"/><linearGradient id="linear-gradient-25" x1="11" y1="85.99" x2="12.9" y2="87.9" xlink:href="#linear-gradient-4"/><radialGradient id="radial-gradient-48" cx="19.33" cy="83.08" r="4.52" gradientTransform="translate(-5.82 13.77) scale(1.02 0.86)" xlink:href="#linear-gradient-2"/><radialGradient id="radial-gradient-49" cx="17.19" cy="85.03" r="1.96" gradientTransform="translate(-5.82 13.77) scale(1.02 0.86)" xlink:href="#linear-gradient-2"/><linearGradient id="linear-gradient-26" x1="10.96" y1="80.08" x2="12.86" y2="81.98" xlink:href="#linear-gradient-4"/><radialGradient id="radial-gradient-50" cx="17.78" cy="77.07" r="2.78" gradientTransform="translate(-5.82 13.77) scale(1.02 0.86)" xlink:href="#linear-gradient-2"/><radialGradient id="radial-gradient-51" cx="17.15" cy="78.14" r="1.96" gradientTransform="translate(-5.82 13.77) scale(1.02 0.86)" xlink:href="#linear-gradient-2"/><linearGradient id="linear-gradient-27" x1="42.8" y1="109.92" x2="26.89" y2="61.33" xlink:href="#linear-gradient-4"/></defs><title>Asset 2antenna</title><g class="cls-1"><g id="Layer_2" data-name="Layer 2"><g id="Layer_1-2" data-name="Layer 1"><path class="cls-2" d="M90.79,18.14l-8.71-11,.52-1.32-79.9,61L0,67.94l13,.17L15.7,67S72.62,29.75,90.79,18.14Z"/><path class="cls-3" d="M82.6,5.82,84.68.56,84.35,0C43.71,36.58,0,67.94,0,67.94l2.7-1.16Z"/><path class="cls-4" d="M106.42,37.86,90.79,18.14C72.62,29.75,15.7,67,15.7,67L13,68.11,36.15,94.83c16.48,11.86,48.58-13,48.58-13C118.28,54.93,106.42,37.86,106.42,37.86Z"/><path class="cls-5" d="M109.12,36.71,83.67,6.63l1-6.07c-40.63,36.58-82,66.22-82,66.22l13,.18L38.85,93.68c16.48,11.85,48.58-13,48.58-13C121,53.77,109.12,36.71,109.12,36.71Z"/><path class="cls-6" d="M81.7,62.87H52.38a3,3,0,0,1,3.2,2.71V93.27A3,3,0,0,1,52.38,96H81.7a3,3,0,0,0,3.2-2.71V65.58A3,3,0,0,0,81.7,62.87Z"/><path class="cls-7" d="M55.58,93.27V65.58a3,3,0,0,0-3.2-2.71h-39a3,3,0,0,0-3.2,2.71V93.27A3,3,0,0,0,13.34,96h39A3,3,0,0,0,55.58,93.27Z"/><rect class="cls-8" x="17.25" y="95.98" width="60.54" height="4.39"/><rect class="cls-9" x="67.15" y="95.98" width="10.64" height="4.39"/><polygon class="cls-10" points="17.25 100.36 17.25 95.98 77.79 95.98 17.25 100.36"/><rect class="cls-11" x="23.9" y="100.37" width="47.24" height="3.42"/><rect class="cls-12" x="68.64" y="100.37" width="2.5" height="3.42"/><polygon class="cls-13" points="71.14 101.41 23.9 103.79 23.9 100.17 71.14 100.17 71.14 101.41"/><rect class="cls-14" x="0.96" y="128.8" width="93.12" height="64.66"/><rect class="cls-15" x="0.96" y="128.8" width="24" height="64.66"/><rect class="cls-16" x="70.08" y="128.8" width="24" height="64.66"/><polygon class="cls-17" points="71.14 103.79 57.28 103.79 70.08 128.8 94.08 128.8 71.14 103.79"/><polygon class="cls-18" points="90.79 128.8 94.08 193.46 94.08 193.46 94.08 128.8 90.79 128.8"/><polygon class="cls-19" points="71.14 103.79 68.64 103.79 90.79 128.8 94.08 128.8 71.14 103.79"/><polygon class="cls-20" points="23.9 103.79 0.96 128.8 24.97 128.8 38.56 103.79 23.9 103.79"/><polygon class="cls-21" points="38.56 103.79 24.97 128.8 70.08 128.8 57.28 103.79 38.56 103.79"/><polygon class="cls-22" points="38.56 103.79 24.97 128.8 70.08 128.8 57.28 103.79 38.56 103.79"/><rect class="cls-23" x="24.97" y="128.8" width="45.11" height="64.66"/><rect class="cls-24" x="24.97" y="128.8" width="45.11" height="64.66"/><path class="cls-25" d="M25,128.8H70.08S43.73,132.07,25,128.8Z"/><path class="cls-25" d="M1,128.8H25S6.11,130.17,1,128.8Z"/><path class="cls-26" d="M70.48,128.8h23.6S79.44,130.25,70.48,128.8Z"/><g class="cls-27"><ellipse class="cls-28" cx="56.41" cy="68.87" rx="0.52" ry="0.69"/><path class="cls-29" d="M56.83,68.86a.54.54,0,0,1-.46.6.55.55,0,0,1-.46-.6c0-.33.21-.61.46-.61S56.83,68.53,56.83,68.86Z"/><g class="cls-30"><path class="cls-31" d="M56.37,68.25h0a.48.48,0,0,1,.36.5c0,.29-.17.51-.39.51a.44.44,0,0,1-.38-.46.09.09,0,0,0,0,0,.55.55,0,0,0,.46.6.54.54,0,0,0,.46-.6C56.83,68.53,56.63,68.25,56.37,68.25Z"/></g></g><g class="cls-27"><path class="cls-32" d="M56.93,75.09c0,.38-.23.69-.52.69s-.52-.31-.52-.69a.62.62,0,0,1,.52-.68C56.7,74.41,56.93,74.71,56.93,75.09Z"/><path class="cls-33" d="M56.83,75.08a.54.54,0,0,1-.46.6.62.62,0,0,1,0-1.2A.54.54,0,0,1,56.83,75.08Z"/><g class="cls-30"><path class="cls-34" d="M56.37,74.48h0a.46.46,0,0,1,.36.5.46.46,0,0,1-.39.51.44.44,0,0,1-.38-.46.06.06,0,0,0,0,0,.55.55,0,0,0,.46.6.62.62,0,0,0,0-1.2Z"/></g></g><g class="cls-27"><path class="cls-35" d="M71.9,94.13c0,.38-.23.69-.52.69s-.51-.31-.51-.69.23-.68.51-.68S71.9,93.75,71.9,94.13Z"/><path class="cls-36" d="M71.81,94.12a.48.48,0,1,1-.47-.6A.55.55,0,0,1,71.81,94.12Z"/><g class="cls-30"><path class="cls-37" d="M71.34,93.52h0a.53.53,0,0,1,0,1c-.2,0-.36-.21-.38-.47,0,0,0,0,0,.05a.48.48,0,1,0,.46-.6Z"/></g></g><g class="cls-27"><path class="cls-38" d="M79.39,94.13c0,.38-.23.69-.52.69s-.52-.31-.52-.69.23-.68.52-.68S79.39,93.75,79.39,94.13Z"/><path class="cls-39" d="M79.29,94.12a.48.48,0,1,1-.46-.6A.54.54,0,0,1,79.29,94.12Z"/><g class="cls-30"><path class="cls-40" d="M78.83,93.52h0a.46.46,0,0,1,.36.5.46.46,0,0,1-.39.51c-.21,0-.37-.21-.39-.47v.05a.48.48,0,1,0,.46-.6Z"/></g></g><g class="cls-27"><path class="cls-41" d="M56.93,94.13c0,.38-.23.69-.52.69s-.52-.31-.52-.69a.62.62,0,0,1,.52-.68C56.7,93.45,56.93,93.75,56.93,94.13Z"/><path class="cls-42" d="M56.83,94.12a.54.54,0,0,1-.46.6.62.62,0,0,1,0-1.2A.54.54,0,0,1,56.83,94.12Z"/><g class="cls-30"><path class="cls-43" d="M56.37,93.52h0a.46.46,0,0,1,.36.5.46.46,0,0,1-.39.51.45.45,0,0,1-.38-.47.09.09,0,0,0,0,.05.55.55,0,0,0,.46.6.62.62,0,0,0,0-1.2Z"/></g></g><g class="cls-27"><path class="cls-44" d="M20.68,94.13c0,.38-.23.69-.52.69s-.52-.31-.52-.69a.62.62,0,0,1,.52-.68C20.45,93.45,20.68,93.75,20.68,94.13Z"/><path class="cls-45" d="M20.58,94.12a.48.48,0,1,1-.46-.6A.54.54,0,0,1,20.58,94.12Z"/><g class="cls-30"><path class="cls-46" d="M20.12,93.52h0a.53.53,0,0,1,0,1c-.21,0-.37-.21-.39-.47v.05a.48.48,0,1,0,.46-.6Z"/></g></g><g class="cls-27"><path class="cls-47" d="M28.16,94.13c0,.38-.23.69-.51.69s-.52-.31-.52-.69.23-.68.52-.68S28.16,93.75,28.16,94.13Z"/><path class="cls-48" d="M28.07,94.12a.48.48,0,1,1-.46-.6A.55.55,0,0,1,28.07,94.12Z"/><g class="cls-30"><path class="cls-49" d="M27.61,93.52h0a.53.53,0,0,1,0,1c-.21,0-.37-.21-.39-.47,0,0,0,0,0,.05a.48.48,0,1,0,.47-.6Z"/></g></g><g class="cls-27"><path class="cls-50" d="M35.65,94.13c0,.38-.23.69-.52.69s-.52-.31-.52-.69a.62.62,0,0,1,.52-.68C35.42,93.45,35.65,93.75,35.65,94.13Z"/><path class="cls-51" d="M35.56,94.12a.48.48,0,1,1-.47-.6A.55.55,0,0,1,35.56,94.12Z"/><g class="cls-30"><path class="cls-52" d="M35.09,93.52h0a.53.53,0,0,1,0,1c-.2,0-.36-.21-.38-.47,0,0,0,0,0,.05a.48.48,0,1,0,.46-.6Z"/></g></g><g class="cls-27"><path class="cls-53" d="M13.19,94.13c0,.38-.23.69-.52.69s-.51-.31-.51-.69.23-.68.51-.68S13.19,93.75,13.19,94.13Z"/><path class="cls-54" d="M13.1,94.12a.55.55,0,0,1-.47.6.62.62,0,0,1,0-1.2A.55.55,0,0,1,13.1,94.12Z"/><g class="cls-30"><path class="cls-55" d="M12.63,93.52h0a.53.53,0,0,1,0,1c-.2,0-.36-.21-.38-.47,0,0,0,0,0,.05a.55.55,0,0,0,.46.6.62.62,0,0,0,0-1.2Z"/></g></g><g class="cls-27"><path class="cls-56" d="M50.86,94.13c0,.38-.23.69-.51.69s-.52-.31-.52-.69.23-.68.52-.68S50.86,93.75,50.86,94.13Z"/><path class="cls-57" d="M50.77,94.12a.48.48,0,1,1-.46-.6A.55.55,0,0,1,50.77,94.12Z"/><g class="cls-30"><path class="cls-58" d="M50.31,93.52h0a.53.53,0,0,1,0,1c-.2,0-.36-.21-.38-.47,0,0,0,0,0,.05a.48.48,0,1,0,.47-.6Z"/></g></g><g class="cls-27"><path class="cls-59" d="M65.83,94.13c0,.38-.23.69-.51.69s-.52-.31-.52-.69.23-.68.52-.68S65.83,93.75,65.83,94.13Z"/><path class="cls-60" d="M65.74,94.12a.48.48,0,1,1-.46-.6A.55.55,0,0,1,65.74,94.12Z"/><g class="cls-30"><path class="cls-61" d="M65.28,93.52h0a.53.53,0,0,1,0,1c-.2,0-.36-.21-.38-.47,0,0,0,0,0,.05a.48.48,0,1,0,.47-.6Z"/></g></g><g class="cls-27"><path class="cls-62" d="M43.38,94.13c0,.38-.23.69-.52.69s-.52-.31-.52-.69.23-.68.52-.68S43.38,93.75,43.38,94.13Z"/><path class="cls-63" d="M43.28,94.12a.55.55,0,0,1-.46.6.62.62,0,0,1,0-1.2A.55.55,0,0,1,43.28,94.12Z"/><g class="cls-30"><path class="cls-64" d="M42.82,93.52h0a.53.53,0,0,1,0,1c-.21,0-.37-.21-.39-.47v.05a.54.54,0,0,0,.46.6.62.62,0,0,0,0-1.2Z"/></g></g><g class="cls-27"><path class="cls-65" d="M56.93,87.91c0,.38-.23.69-.52.69s-.52-.31-.52-.69.24-.69.52-.69S56.93,87.53,56.93,87.91Z"/><path class="cls-66" d="M56.83,87.9a.54.54,0,0,1-.46.6.63.63,0,0,1,0-1.21C56.63,87.29,56.83,87.56,56.83,87.9Z"/><g class="cls-30"><path class="cls-67" d="M56.37,87.29h0a.48.48,0,0,1,.36.5.46.46,0,0,1-.39.51.44.44,0,0,1-.38-.46.09.09,0,0,0,0,.05.55.55,0,0,0,.46.6.54.54,0,0,0,.46-.6C56.83,87.56,56.63,87.29,56.37,87.29Z"/></g></g><g class="cls-27"><path class="cls-68" d="M56.93,81.32c0,.38-.23.69-.52.69s-.52-.31-.52-.69.24-.69.52-.69S56.93,80.94,56.93,81.32Z"/><path class="cls-69" d="M56.83,81.31a.54.54,0,0,1-.46.6.55.55,0,0,1-.46-.6.54.54,0,0,1,.46-.6C56.63,80.71,56.83,81,56.83,81.31Z"/><g class="cls-30"><path class="cls-70" d="M56.37,80.71h0a.48.48,0,0,1,.36.5.46.46,0,0,1-.39.51.44.44,0,0,1-.38-.46.09.09,0,0,0,0,0,.55.55,0,0,0,.46.6.54.54,0,0,0,.46-.6C56.83,81,56.63,80.71,56.37,80.71Z"/></g></g><g class="cls-27"><path class="cls-71" d="M12.72,68.87c0,.38-.23.69-.52.69s-.52-.31-.52-.69.24-.69.52-.69S12.72,68.49,12.72,68.87Z"/><path class="cls-72" d="M12.63,68.86a.55.55,0,0,1-.47.6.54.54,0,0,1-.46-.6c0-.33.2-.61.46-.61A.56.56,0,0,1,12.63,68.86Z"/><g class="cls-30"><path class="cls-73" d="M12.16,68.25h0a.47.47,0,0,1,.35.5c0,.29-.17.51-.39.51a.45.45,0,0,1-.39-.46v0a.54.54,0,0,0,.46.6.55.55,0,0,0,.47-.6A.56.56,0,0,0,12.16,68.25Z"/></g></g><g class="cls-27"><path class="cls-74" d="M12.72,75.09c0,.38-.23.69-.52.69s-.52-.31-.52-.69a.62.62,0,0,1,.52-.68C12.49,74.41,12.72,74.71,12.72,75.09Z"/><path class="cls-75" d="M12.63,75.08a.55.55,0,0,1-.47.6.62.62,0,0,1,0-1.2A.55.55,0,0,1,12.63,75.08Z"/><g class="cls-30"><path class="cls-76" d="M12.16,74.48h0a.53.53,0,0,1,0,1A.45.45,0,0,1,11.7,75v0a.54.54,0,0,0,.46.6.62.62,0,0,0,0-1.2Z"/></g></g><g class="cls-27"><path class="cls-77" d="M12.76,87.23c0,.38-.23.69-.52.69s-.52-.31-.52-.69a.62.62,0,0,1,.52-.68C12.53,86.55,12.76,86.85,12.76,87.23Z"/><path class="cls-78" d="M12.66,87.22a.54.54,0,0,1-.46.6.62.62,0,0,1,0-1.2A.54.54,0,0,1,12.66,87.22Z"/><g class="cls-30"><path class="cls-79" d="M12.2,86.62h0a.46.46,0,0,1,.36.5.46.46,0,0,1-.39.51.45.45,0,0,1-.38-.47.09.09,0,0,0,0,0,.55.55,0,0,0,.46.6.62.62,0,0,0,0-1.2Z"/></g></g><g class="cls-27"><path class="cls-80" d="M12.72,81.32c0,.38-.23.69-.52.69s-.52-.31-.52-.69.24-.69.52-.69S12.72,80.94,12.72,81.32Z"/><path class="cls-81" d="M12.63,81.31a.55.55,0,0,1-.47.6.54.54,0,0,1-.46-.6c0-.34.2-.6.46-.6A.54.54,0,0,1,12.63,81.31Z"/><g class="cls-30"><path class="cls-82" d="M12.16,80.71h0a.47.47,0,0,1,.35.5.46.46,0,0,1-.39.51.45.45,0,0,1-.39-.46v0a.54.54,0,0,0,.46.6.55.55,0,0,0,.47-.6A.54.54,0,0,0,12.16,80.71Z"/></g></g><path class="cls-83" d="M12.94,96c8.13-5.27,37.54-23.2,43-27.08,1-.71-1.72-3.9-.72-4.61a3.32,3.32,0,0,0-2.79-1.39h-39a3,3,0,0,0-3.2,2.71V93.27A2.9,2.9,0,0,0,12.94,96Z"/></g></g></g></svg>