<svg xmlns="http://www.w3.org/2000/svg" xmlns:xlink="http://www.w3.org/1999/xlink" viewBox="0 0 218.56 263.07"><defs><style>.cls-1{isolation:isolate;}.cls-2{fill:url(#linear-gradient);}.cls-13,.cls-3,.cls-4{fill:#737679;}.cls-4,.cls-7{opacity:0.5;}.cls-13,.cls-39,.cls-4,.cls-41,.cls-6,.cls-9{mix-blend-mode:multiply;}.cls-5{fill:url(#radial-gradient);}.cls-6{fill:#b1b3b6;}.cls-12,.cls-7{fill:#fff;}.cls-11,.cls-7{mix-blend-mode:screen;}.cls-8{fill:url(#linear-gradient-2);}.cls-22,.cls-9{fill:#cfd1d2;}.cls-10{fill:url(#radial-gradient-2);}.cls-11{opacity:0.6;}.cls-14{fill:#648199;}.cls-15{fill:url(#linear-gradient-3);}.cls-16{fill:#4a6174;}.cls-17{fill:url(#radial-gradient-3);}.cls-18{opacity:0.4;mix-blend-mode:color-dodge;fill:url(#radial-gradient-4);}.cls-19{fill:none;}.cls-20{fill:#696768;}.cls-21{fill:#151515;}.cls-23{fill:url(#linear-gradient-4);}.cls-24{fill:#494c4e;}.cls-25{fill:#36393b;}.cls-26{fill:url(#linear-gradient-5);}.cls-27{fill:#007b9c;}.cls-28{fill:url(#linear-gradient-6);}.cls-29{fill:url(#linear-gradient-7);}.cls-30{fill:url(#linear-gradient-8);}.cls-31{fill:url(#linear-gradient-9);}.cls-32{fill:url(#linear-gradient-10);}.cls-33{fill:url(#linear-gradient-11);}.cls-34{fill:url(#linear-gradient-12);}.cls-35{fill:url(#linear-gradient-13);}.cls-36{fill:url(#linear-gradient-14);}.cls-37{fill:url(#linear-gradient-15);}.cls-38{fill:url(#linear-gradient-16);}.cls-40{fill:#71c0eb;}.cls-41{fill:#008bb8;opacity:0.3;}.cls-42{fill:#828487;}.cls-43{fill:#c0c2c4;}.cls-44{fill:#1a1c1e;}.cls-45{fill:#45484a;}.cls-46{fill:#f8a344;}.cls-47{fill:url(#linear-gradient-17);}.cls-48{fill:url(#linear-gradient-18);}.cls-49{fill:url(#linear-gradient-19);}.cls-50{fill:url(#linear-gradient-20);}.cls-51{fill:url(#linear-gradient-21);}.cls-52{fill:url(#linear-gradient-22);}.cls-53{fill:url(#linear-gradient-23);}.cls-54{fill:url(#linear-gradient-24);}.cls-55{fill:url(#linear-gradient-25);}.cls-56{fill:url(#linear-gradient-26);}.cls-57{fill:url(#linear-gradient-27);}.cls-58{fill:url(#linear-gradient-28);}</style><linearGradient id="linear-gradient" x1="167.08" y1="223.03" x2="244.93" y2="109.28" gradientUnits="userSpaceOnUse"><stop offset="0.46" stop-color="#e5e0df"/><stop offset="1" stop-color="#8ca99c"/></linearGradient><radialGradient id="radial-gradient" cx="142.4" cy="164.34" r="103.49" gradientUnits="userSpaceOnUse"><stop offset="0" stop-color="#00a5bc"/><stop offset="0.28" stop-color="#21687e"/><stop offset="0.51" stop-color="#0d3b59"/><stop offset="0.59" stop-color="#05294a"/><stop offset="0.71" stop-color="#031b31"/><stop offset="0.9" stop-color="#01070d"/><stop offset="1"/></radialGradient><linearGradient id="linear-gradient-2" x1="55.57" y1="247.76" x2="230.17" y2="-7.35" xlink:href="#linear-gradient"/><radialGradient id="radial-gradient-2" cx="142.4" cy="164.34" r="103.49" xlink:href="#radial-gradient"/><linearGradient id="linear-gradient-3" x1="137.42" y1="119.63" x2="162.74" y2="119.63" xlink:href="#linear-gradient"/><radialGradient id="radial-gradient-3" cx="-1003.64" cy="342.88" r="137.06" gradientTransform="matrix(-0.94, 0.27, 0.29, 0.95, -949.13, 134.71)" gradientUnits="userSpaceOnUse"><stop offset="0.46" stop-color="#e5e0df"/><stop offset="1" stop-color="#77787b"/></radialGradient><radialGradient id="radial-gradient-4" cx="-991.18" cy="348.19" r="137.06" gradientTransform="matrix(-0.96, 0.29, 0.29, 0.96, -955.12, 140.06)" xlink:href="#radial-gradient-3"/><linearGradient id="linear-gradient-4" x1="-1071" y1="233.94" x2="-1051.24" y2="246.31" gradientTransform="matrix(-0.98, 0.2, 0.2, 0.98, -905.13, 61.13)" xlink:href="#radial-gradient-3"/><linearGradient id="linear-gradient-5" x1="6.5" y1="30.18" x2="86.94" y2="93.64" gradientTransform="translate(-0.7 -0.8) rotate(-0.07)" gradientUnits="userSpaceOnUse"><stop offset="0" stop-color="#e3f3fc"/><stop offset="0.28" stop-color="#3db8c9"/><stop offset="0.36" stop-color="#36b1c5"/><stop offset="0.46" stop-color="#239fbb"/><stop offset="0.58" stop-color="#0581aa"/><stop offset="0.6" stop-color="#007ca7"/><stop offset="0.73" stop-color="#076791"/><stop offset="0.87" stop-color="#0f4d75"/></linearGradient><linearGradient id="linear-gradient-6" x1="4.29" y1="37.7" x2="84.79" y2="101.22" xlink:href="#linear-gradient-5"/><linearGradient id="linear-gradient-7" x1="2.09" y1="45.24" x2="82.65" y2="108.8" xlink:href="#linear-gradient-5"/><linearGradient id="linear-gradient-8" x1="-0.11" y1="52.78" x2="80.52" y2="116.4" xlink:href="#linear-gradient-5"/><linearGradient id="linear-gradient-9" x1="-2.3" y1="60.32" x2="78.4" y2="124" xlink:href="#linear-gradient-5"/><linearGradient id="linear-gradient-10" x1="-4.66" y1="67.3" x2="77.1" y2="131.8" xlink:href="#linear-gradient-5"/><linearGradient id="linear-gradient-11" x1="10.96" y1="15.15" x2="91.26" y2="78.5" xlink:href="#linear-gradient-5"/><linearGradient id="linear-gradient-12" x1="8.73" y1="22.66" x2="89.09" y2="86.07" xlink:href="#linear-gradient-5"/><linearGradient id="linear-gradient-13" x1="20.06" y1="-14.86" x2="100.02" y2="48.22" xlink:href="#linear-gradient-5"/><linearGradient id="linear-gradient-14" x1="17.7" y1="-7.35" x2="97.8" y2="55.85" xlink:href="#linear-gradient-5"/><linearGradient id="linear-gradient-15" x1="13.19" y1="7.64" x2="93.43" y2="70.95" xlink:href="#linear-gradient-5"/><linearGradient id="linear-gradient-16" x1="15.44" y1="0.14" x2="95.61" y2="63.4" xlink:href="#linear-gradient-5"/><linearGradient id="linear-gradient-17" x1="28.67" y1="181.04" x2="109.11" y2="244.5" xlink:href="#linear-gradient-5"/><linearGradient id="linear-gradient-18" x1="26.46" y1="188.56" x2="106.96" y2="252.08" xlink:href="#linear-gradient-5"/><linearGradient id="linear-gradient-19" x1="24.25" y1="196.09" x2="104.82" y2="259.66" xlink:href="#linear-gradient-5"/><linearGradient id="linear-gradient-20" x1="22.06" y1="203.64" x2="102.69" y2="267.25" xlink:href="#linear-gradient-5"/><linearGradient id="linear-gradient-21" x1="19.87" y1="211.18" x2="100.57" y2="274.85" xlink:href="#linear-gradient-5"/><linearGradient id="linear-gradient-22" x1="17.51" y1="218.15" x2="99.26" y2="282.66" xlink:href="#linear-gradient-5"/><linearGradient id="linear-gradient-23" x1="33.13" y1="166.01" x2="113.43" y2="229.36" xlink:href="#linear-gradient-5"/><linearGradient id="linear-gradient-24" x1="30.89" y1="173.52" x2="111.26" y2="236.93" xlink:href="#linear-gradient-5"/><linearGradient id="linear-gradient-25" x1="42.23" y1="136" x2="122.19" y2="199.08" xlink:href="#linear-gradient-5"/><linearGradient id="linear-gradient-26" x1="39.86" y1="143.51" x2="119.97" y2="206.71" xlink:href="#linear-gradient-5"/><linearGradient id="linear-gradient-27" x1="35.36" y1="158.5" x2="115.6" y2="221.81" xlink:href="#linear-gradient-5"/><linearGradient id="linear-gradient-28" x1="37.61" y1="151" x2="117.78" y2="214.26" xlink:href="#linear-gradient-5"/></defs><title>Asset 1satellite</title><g class="cls-1"><g id="Layer_2" data-name="Layer 2"><g id="Layer_1-2" data-name="Layer 1"><path class="cls-2" d="M214.37,165.73c-.18-.17-15.32-13.44-15.32-13.44l-13.27,6-7.71,41.77s21.3.94,21.49,1l.07,0,2.24-.2c5.13-.76,10.15-4,14.16-13C220.26,178.36,218.83,170,214.37,165.73Z"/><path class="cls-3" d="M214.37,165.73c-.18-.17-15.32-13.44-15.32-13.44l-13.27,6-7.71,41.77s21.3.94,21.49,1l.07,0,2.24-.2c5.13-.76,10.15-4,14.16-13C220.26,178.36,218.83,170,214.37,165.73Z"/><path class="cls-4" d="M204.53,190.67c4.8-8.64,8-18,6.76-27.65l-12.24-10.73-13.27,6-7.71,41.77s10,.44,16.34.74C198,198.23,202.39,194.5,204.53,190.67Z"/><path class="cls-4" d="M207.53,167.17c3.62,2.87,7.35,5.59,11,8.43a14.69,14.69,0,0,0-4.14-9.87c-.18-.17-15.32-13.44-15.32-13.44l-6.51,2.94C197.59,159.15,202.53,163.19,207.53,167.17Z"/><path class="cls-4" d="M179.57,192l-1.5,8.08s21.3.94,21.49,1l.07,0,2.24-.2a14.55,14.55,0,0,0,7-3C199,196.48,189.3,194.08,179.57,192Z"/><path class="cls-5" d="M198.94,143.55c-.32-.3-27.49-24.11-27.49-24.11L147.66,130.2l-13.83,74.93s38.2,1.68,38.54,1.78l.12,0,4-.35c9.2-1.37,18.21-7.25,25.4-23.36C209.51,166.2,206.93,151.19,198.94,143.55Z"/><path class="cls-6" d="M179.37,146.35c7,4.82,15.45,15.36,25.81,27.38,3.15-13,.23-24-6.24-30.18-.32-.3-27.49-24.11-27.49-24.11L147.66,130.2l-.59,3.18C152.27,138.3,172.81,141.81,179.37,146.35Z"/><path class="cls-7" d="M170.59,175.86c-6.8-2.06-11.26-3.94-18.12-5.81a94.11,94.11,0,0,1-11.5-3.6L139,177c20.15,4.08,40.41,7.57,60.74,10.61.39-.73.77-1.48,1.15-2.26C191.56,182.39,180,178.71,170.59,175.86Z"/><path class="cls-6" d="M145,200.35c-3.6-.37-11.17,4.78-11.17,4.78s38.2,1.68,38.54,1.78l.12,0,4-.35A26.14,26.14,0,0,0,184.7,204C177.85,203.15,151.08,201,145,200.35Z"/><path class="cls-8" d="M167.89,117.21a16,16,0,0,0-1.75-.64h0L95,92.91l1.58,3.92-41.81,82,75.11,25.35a14.17,14.17,0,0,0,1.43.49l.17.05h0c13.25,3.56,31.24-10.68,41.34-33.32C183.46,147.43,181.27,123.18,167.89,117.21Z"/><path class="cls-9" d="M89.92,109.81c15.73,6.64,31.05,14.22,47,20.32,14.15,5.4,28.39,10.57,42.43,16.22,1.07-14-2.9-25.31-11.48-29.14a16,16,0,0,0-1.75-.64h0L95,92.91l1.58,3.92Z"/><path class="cls-9" d="M60.46,167.57,54.73,178.8l75.11,25.35a14.17,14.17,0,0,0,1.43.49l.17.05h0c5.68,1.52,12.22-.22,18.64-4.49C120.09,189.65,90.28,178.58,60.46,167.57Z"/><path class="cls-7" d="M73.54,141.93l-3.26,6.38C86.7,156.16,104,162,121.12,168.07c15,5.38,30.55,9.34,45.71,14.34,1.32-2.07,2.58-4.26,3.76-6.55C138.08,165,104.74,156.23,73.54,141.93Z"/><path class="cls-10" d="M126.32,103c-2.36-.78-4.73-1.55-7.13-2.21,8.45,10,8.31,31.82-1.35,53.48-7.88,17.67-20.37,30.92-31.91,35.21l6.37,2.38c11.33-6.1,22.51-18.9,30-35.62C131.39,135.8,132.47,115.58,126.32,103Z"/><path class="cls-3" d="M98.3,146.26C87.62,170.2,68.11,184.77,54.73,178.8s-15.57-30.22-4.89-54.16S80,86.14,93.41,92.1,109,122.32,98.3,146.26Z"/><g class="cls-11"><path class="cls-12" d="M96.71,142.75c-10.26,23-29,37-41.84,31.25-7-3.15-10.85-11.57-11.17-22.32-.37,12.22,3.46,22,11.17,25.41,12.85,5.74,31.58-8.25,41.84-31.24,4.63-10.39,6.74-20.83,6.47-29.7A71.93,71.93,0,0,1,96.71,142.75Z"/></g><path class="cls-13" d="M88.34,141.78c-6.28,14.08-17.76,22.65-25.63,19.14s-9.16-17.78-2.88-31.86,17.76-22.66,25.63-19.15S94.63,127.69,88.34,141.78Z"/><path class="cls-3" d="M115,142.46c-1.9,6.51-8.59,25.62-25,39.5L79,177.39c-1.25,1.09-2,1.67-2,1.67l12.9,5.41c20.13-17,27.22-41.23,27.22-41.23Z"/><path class="cls-12" d="M115,142.46l-9.9-3.57c-6.45,20-20.78,33.9-26,38.5L89.92,182C106.38,168.08,113.07,149,115,142.46Z"/><path class="cls-13" d="M109.82,148.57l.52.21c.5-1.3.85-2.39,1.06-3.13l-5-1.79c-.33,1-.7,2-1.1,2.93C106.87,147.28,108.32,148,109.82,148.57Z"/><path class="cls-13" d="M107.71,152.67l.8.25c.5-1,.93-1.95,1.3-2.83a34.56,34.56,0,0,0-5.09-1.89c-.45,1-.94,1.92-1.45,2.82C104.74,151.59,106.2,152.2,107.71,152.67Z"/><path class="cls-14" d="M106,157.22c.64-1,1.21-1.95,1.73-2.89-.4-.13-.81-.25-1.21-.39-1.38-.48-2.73-1.05-4.09-1.57-.63,1-1.27,2-1.92,2.85C102.38,155.85,104.22,156.51,106,157.22Z"/><path class="cls-15" d="M140.77,121.67a5,5,0,0,1-3.07-6.38h0a5,5,0,0,1,6.39-3.07l15.29,5.37a5,5,0,0,1,3.07,6.38h0a5,5,0,0,1-6.39,3.07Z"/><path class="cls-3" d="M159.38,117.59l-15.29-5.37a4.94,4.94,0,0,0-6.64,4.44,5,5,0,0,1,6.16-2.57l15.29,5.37a5,5,0,0,1,3.32,5,3.81,3.81,0,0,0,.23-.5A5,5,0,0,0,159.38,117.59Z"/><path class="cls-12" d="M158.9,119.46l-15.29-5.37a5,5,0,0,0-6.16,2.57,5,5,0,0,0,3.32,5L156.06,127a5,5,0,0,0,6.16-2.57A5,5,0,0,0,158.9,119.46Z"/><path class="cls-3" d="M150.08,108.19l-5.17,10s-.81,1.07.57,2.75,8.7,4,8.7,4,2.29,1.13,3.18-.47,4.87-10.66,4.87-10.66Z"/><path class="cls-13" d="M152.33,122.87c1,.88,2.07,1.69,3.11,2.43a1.79,1.79,0,0,0,1.92-.83c.89-1.6,4.87-10.66,4.87-10.66l-12.15-5.62-4.28,8.29A41.32,41.32,0,0,0,152.33,122.87Z"/><path class="cls-16" d="M145.4,113.6c19.15,22.21,44.74,31.54,57.16,20.84s6.95-37.4-12.2-59.61S145.61,43.29,133.2,54,126.24,91.38,145.4,113.6Z"/><path class="cls-17" d="M146.45,112.69C165.6,134.9,191,144.44,203.08,134S209.51,97,190.36,74.83s-44.51-31.74-56.64-21.29S127.3,90.48,146.45,112.69Z"/><path class="cls-18" d="M190.52,119.94c-10.49-3.88-21-8.76-30-15.5S143,89.52,136.88,79.88c-3.47-5.45-7-11.44-9-17.77A18.24,18.24,0,0,1,133.2,54c3.77-3.25,8.76-4.64,14.41-4.39a58.75,58.75,0,0,0-.76,25.19c1.93,10.5,5.71,22.15,14.92,28.56s21.6,6.32,32.27,4.49c4.07-.7,8.93-1.06,13.47-2.14,1.93,7.14,2.22,13.78.76,19.24C202.05,124.08,195.71,121.87,190.52,119.94Z"/><path class="cls-19" d="M150.18,113.69c12.75,14.78,29.78,21,38,13.87s4.62-24.88-8.12-39.66-29.77-21-38-13.86S137.44,98.91,150.18,113.69Z"/><path class="cls-20" d="M155.58,105.28c2.2,2.56,5.14,3.63,6.57,2.4s.8-4.3-1.41-6.85-5.14-3.63-6.57-2.4S153.37,102.73,155.58,105.28Z"/><path class="cls-21" d="M155.58,105.28c1.22,1.42,2.85,2,3.65,1.34s.44-2.39-.78-3.81-2.86-2-3.65-1.33S154.35,103.87,155.58,105.28Z"/><path class="cls-22" d="M203.51,130.47a1,1,0,0,0,.65-1.18L192.51,85.53a1,1,0,1,0-1.87.5l11.65,43.76a1,1,0,0,0,1.19.68Z"/><path class="cls-22" d="M183.58,76.29a1,1,0,0,0,.53-.37,1.08,1.08,0,0,0-.21-1.49L155.84,52.61a1,1,0,0,0-1.46.2,1.09,1.09,0,0,0,.22,1.49l28.06,21.81A1,1,0,0,0,183.58,76.29Z"/><path class="cls-22" d="M141.12,104.87,184.71,81a1,1,0,0,1,.64.57,1.4,1.4,0,0,1,0,1.1L142,106.44a.9.9,0,0,1-.86-1.57Z"/><path class="cls-23" d="M182.65,75.78l3.58-3.12,7.67,11.28-3,2.54h0a3.15,3.15,0,0,1-.38.35c-1.7,1.21-4.85-.27-7-3.32S180.94,77,182.65,75.78Z"/><path class="cls-24" d="M186.88,80.63c2.17,3.05,5.32,4.53,7,3.31s1.32-4.67-.85-7.72-5.32-4.54-7-3.32S184.7,77.58,186.88,80.63Z"/><path class="cls-3" d="M157.43,150.33,142.13,145a5,5,0,0,0-6.38,3.07,4.8,4.8,0,0,0-.26,1.38,5,5,0,0,1,6.16-2.57l15.29,5.37a5,5,0,0,1,3.32,5,4.52,4.52,0,0,0,.23-.5A5,5,0,0,0,157.43,150.33Z"/><path class="cls-12" d="M156.94,152.21l-15.29-5.37a5,5,0,0,0-6.16,2.57,5,5,0,0,0,3.32,5l15.3,5.37a5,5,0,0,0,6.15-2.57A5,5,0,0,0,156.94,152.21Z"/><path class="cls-25" d="M51.19,103.69c.89.36,1.78.77,2.7,1.1L48,52.8a1.45,1.45,0,1,0-2.89.32l5.77,50.52A.67.67,0,0,1,51.19,103.69Z"/><path class="cls-26" d="M35.19,26.17c2.08,15.18,6.89,50.29,9.51,69.45l7.5-3.26c-2.69-19.25-7.64-54.73-9.74-69.83Z"/><path class="cls-27" d="M44.7,96.22a.29.29,0,0,1-.18-.08.7.7,0,0,1-.16-.38L34.85,26.31a.71.71,0,0,1,.24-.72L42.36,22a.21.21,0,0,1,.27.06.61.61,0,0,1,.17.38l9.74,69.83a.7.7,0,0,1-.26.72L44.79,96.2A.15.15,0,0,1,44.7,96.22ZM35.6,26.58,45,94.89l6.81-3L42.2,23.28Z"/><path class="cls-28" d="M27.91,29.81c2.06,15.27,6.73,50,9.3,69.08l7.49-3.27c-2.62-19.16-7.43-54.27-9.51-69.45Z"/><path class="cls-27" d="M37.21,99.49A.24.24,0,0,1,37,99.4a.67.67,0,0,1-.16-.38c-2.57-19.08-7.24-53.81-9.3-69.08a.69.69,0,0,1,.25-.7l7.27-3.65a.24.24,0,0,1,.27.06.64.64,0,0,1,.17.38L45,95.49a.69.69,0,0,1-.25.71L37.3,99.47ZM28.33,30.22c2.07,15.38,6.59,49,9.14,67.94l6.81-3L34.93,26.92Z"/><path class="cls-29" d="M20.64,33.45l9.08,68.7,7.49-3.26C34.64,79.8,30,45.08,27.91,29.81Z"/><path class="cls-27" d="M29.72,102.75a.23.23,0,0,1-.18-.09.6.6,0,0,1-.16-.37l-1.12-8.45c-2.57-19.48-6.21-47-8-60.26a.71.71,0,0,1,.24-.7l7.28-3.64a.22.22,0,0,1,.27.05.83.83,0,0,1,.17.39c2,15.26,6.72,50,9.29,69.07a.72.72,0,0,1-.25.72l-7.49,3.26A.15.15,0,0,1,29.72,102.75ZM21.06,33.87c1.77,13.47,5.34,40.49,7.88,59.7l1,7.85,6.81-3C34.24,79.51,29.73,46,27.66,30.56Z"/><path class="cls-30" d="M13.37,37.09c2,15.42,6.4,49.41,8.86,68.33l7.49-3.27-9.08-68.7Z"/><path class="cls-27" d="M22.23,106a.26.26,0,0,1-.19-.09.69.69,0,0,1-.15-.38l-.67-5.14C18.7,81,14.85,51.33,13,37.22a.7.7,0,0,1,.24-.7l7.27-3.64a.22.22,0,0,1,.28.06.67.67,0,0,1,.16.38c1.76,13.33,5.42,41,8,60.48L30.06,102a.7.7,0,0,1-.25.71L22.31,106ZM13.78,37.51C15.63,51.83,19.41,81,21.9,100.16l.59,4.53,6.81-3-1-7.66c-2.54-19.19-6.12-46.31-7.91-59.86Z"/><path class="cls-31" d="M6.09,40.74c2,15.49,6.25,49.11,8.65,67.95l7.49-3.27c-2.46-18.92-6.86-52.91-8.86-68.33Z"/><path class="cls-27" d="M14.74,109.28a.26.26,0,0,1-.19-.09.67.67,0,0,1-.16-.38C12,90,7.72,56.35,5.75,40.87a.71.71,0,0,1,.24-.7l7.28-3.65a.24.24,0,0,1,.28.06.67.67,0,0,1,.16.39C15.53,51,19.36,80.58,21.88,100l.69,5.27a.68.68,0,0,1-.26.71l-7.49,3.26A.13.13,0,0,1,14.74,109.28ZM6.5,41.16c2,15.55,6.12,48.07,8.5,66.79l6.81-3-.61-4.7C18.72,81.13,15,52.16,13.11,37.85Z"/><path class="cls-32" d="M.35,43.61l7.61,68,6.78-3c-2.4-18.84-6.68-52.46-8.65-67.95Z"/><path class="cls-27" d="M8,112.24a.26.26,0,0,1-.19-.09.73.73,0,0,1-.16-.4L0,43.73A.7.7,0,0,1,.25,43L6,40.17a.23.23,0,0,1,.28,0,.73.73,0,0,1,.16.39c2,15.49,6.25,49.11,8.65,68a.67.67,0,0,1-.26.7l-6.78,3ZM.75,44,8.23,110.9l6.09-2.65C11.94,89.57,7.81,57.09,5.83,41.49Z"/><path class="cls-33" d="M49.73,18.88c2.13,15,7.22,50.88,10,70.21l7.49-3.26L57,15.24Z"/><path class="cls-27" d="M59.69,89.69a.24.24,0,0,1-.18-.09.64.64,0,0,1-.16-.37L49.39,19a.7.7,0,0,1,.24-.72l7.27-3.64a.22.22,0,0,1,.27.06.71.71,0,0,1,.17.37L67.52,85.68a.68.68,0,0,1-.25.72l-7.5,3.27ZM50.15,19.3,60,88.36l6.81-3L56.74,16Z"/><path class="cls-34" d="M42.46,22.53c2.1,15.1,7,50.58,9.74,69.83l7.49-3.27c-2.74-19.33-7.83-55.2-10-70.21Z"/><path class="cls-27" d="M52.2,93a.26.26,0,0,1-.19-.09.74.74,0,0,1-.16-.37L42.12,22.66a.69.69,0,0,1,.24-.71l7.27-3.64a.21.21,0,0,1,.27.06.64.64,0,0,1,.17.37L60,89a.7.7,0,0,1-.26.72l-7.49,3.27Zm-9.33-70,9.58,68.69,6.82-3-9.8-69Z"/><polygon class="cls-35" points="97.31 72.69 86.24 0.6 78.8 4.33 89.67 76.03 97.31 72.69"/><path class="cls-27" d="M89.67,76.62c-.16,0-.3-.18-.34-.45L78.46,4.48a.72.72,0,0,1,.24-.73L86.14,0a.24.24,0,0,1,.27.06.71.71,0,0,1,.17.37L97.65,72.54a1,1,0,0,1,0,.46.46.46,0,0,1-.21.27L89.75,76.6A.13.13,0,0,1,89.67,76.62ZM79.22,4.74,89.92,75.3l7-3L86,1.34Z"/><path class="cls-36" d="M78.8,4.33,71.53,8,82.17,79.29,89.67,76Z"/><path class="cls-27" d="M82.17,79.89c-.16,0-.3-.18-.34-.45L71.19,8.11a.71.71,0,0,1,.24-.72L78.7,3.75a.24.24,0,0,1,.27.06.71.71,0,0,1,.17.37L90,75.88a1.13,1.13,0,0,1,0,.45.44.44,0,0,1-.22.27l-7.49,3.27ZM72,8.37,82.42,78.56l6.82-3L78.55,5.07Z"/><path class="cls-37" d="M57,15.24,67.18,85.83l7.5-3.27c-2.87-19.5-8.25-56.17-10.42-71Z"/><path class="cls-27" d="M67.18,86.42a.29.29,0,0,1-.18-.08.74.74,0,0,1-.16-.37L56.66,15.39a.71.71,0,0,1,.24-.72L64.16,11a.22.22,0,0,1,.28.06.64.64,0,0,1,.16.37L75,82.41c0,.32-.07.65-.26.73L67.27,86.4A.15.15,0,0,1,67.18,86.42ZM57.42,15.66l10,69.44,6.81-3L64,12.35Z"/><path class="cls-38" d="M64.26,11.6c2.17,14.79,7.55,51.46,10.42,71l7.49-3.27L71.53,8Z"/><path class="cls-27" d="M74.68,83.16a.23.23,0,0,1-.18-.09.64.64,0,0,1-.16-.37L63.92,11.75a.73.73,0,0,1,.24-.72l7.27-3.64a.23.23,0,0,1,.27.05.64.64,0,0,1,.17.38L82.51,79.14a1,1,0,0,1,0,.46.46.46,0,0,1-.21.27l-7.5,3.27ZM64.68,12,74.93,81.83l6.82-3L71.28,8.71Z"/><g class="cls-39"><polygon class="cls-40" points="6.04 94.51 6.23 96.22 94.84 56.61 94.58 54.93 6.04 94.51"/><polygon class="cls-40" points="91.56 35.26 4.04 76.65 4.24 78.36 91.82 36.93 91.56 35.26"/><polygon class="cls-40" points="88.4 14.67 1.7 55.68 1.89 57.39 88.66 16.35 88.4 14.67"/></g><polygon class="cls-41" points="86.24 0.6 97.31 72.69 7.96 111.64 86.24 0.6"/><path class="cls-42" d="M82.57,113.38a6.45,6.45,0,0,0-.87-.32h0L46.26,101.28l.78,2L26.22,144.05l37.41,12.63c.23.09.47.17.71.24l.08,0h0C71,158.72,80,151.62,85,140.35,90.33,128.43,89.24,116.35,82.57,113.38Z"/><path class="cls-43" d="M72.57,123.63c2.31.89,4.62,1.8,6.93,2.7a32.68,32.68,0,0,0-2.29-14.77L46.26,101.28l.78,2-4.4,8.63C52.41,116.27,62.57,119.77,72.57,123.63Z"/><path class="cls-43" d="M82.57,113.38a6.45,6.45,0,0,0-.87-.32h0l-2.58-.86v0a34.77,34.77,0,0,1,2,14.74c2.33.91,4.66,1.83,7,2.73C89.14,121.93,87.21,115.45,82.57,113.38Z"/><path class="cls-43" d="M68.86,147.27a39.87,39.87,0,0,0,6.75-8.58,29.53,29.53,0,0,0,3.71-10.78c-2.85-1.11-5.7-2.22-8.56-3.31-9.65-3.66-19.42-7.1-28.83-11.35L31.5,133.7c2.72,1,5.37,2.14,8.06,3.11q7.86,2.85,15.76,5.56C59.87,143.92,64.37,145.58,68.86,147.27Z"/><path class="cls-12" d="M80.9,128.53A28.1,28.1,0,0,1,77,139.47a47,47,0,0,1-6.58,8.36l7.85,3A38.43,38.43,0,0,0,85,140.35a40,40,0,0,0,2.84-9.1Z"/><path class="cls-43" d="M67.56,148.48c-4.68-1.75-9.36-3.46-14.07-5.09q-7.92-2.73-15.78-5.59c-2.33-.85-4.61-1.84-6.94-2.67l-4.55,8.92L57.6,154.64A32.7,32.7,0,0,0,67.56,148.48Z"/><path class="cls-43" d="M59.82,155.39l3.81,1.29c.23.09.47.17.71.24l.08,0h0c3.82,1,8.42-.93,12.6-4.93l-7.9-2.95A35.05,35.05,0,0,1,59.82,155.39Z"/><path class="cls-3" d="M47.92,127.85c-5.32,11.92-15,19.17-21.7,16.2s-7.75-15.05-2.43-27,15-19.18,21.69-16.2S53.24,115.92,47.92,127.85Z"/><path class="cls-3" d="M47.92,127.85c-5.32,11.92-15,19.17-21.7,16.2s-7.75-15.05-2.43-27,15-19.18,21.69-16.2S53.24,115.92,47.92,127.85Z"/><path class="cls-44" d="M44.74,126.72c-4.49,10.06-12.4,16.31-17.68,13.95s-5.91-12.41-1.42-22.47,12.4-16.3,17.67-14S49.22,116.67,44.74,126.72Z"/><path class="cls-45" d="M27.4,118.79c4.34-9.73,12.13-15.71,17.41-13.35.15.06.28.16.42.23a5.93,5.93,0,0,0-1.92-1.42c-5.27-2.35-13.19,3.9-17.67,14s-3.85,20.12,1.42,22.47a6.14,6.14,0,0,0,3.44.41,6.33,6.33,0,0,1-1.41-.41C23.81,138.32,23.06,128.53,27.4,118.79Z"/><path class="cls-46" d="M38.53,110.74c-.46,1-1.26,1.65-1.79,1.41s-.6-1.26-.15-2.27,1.26-1.65,1.79-1.41S39,109.72,38.53,110.74Z"/><path class="cls-12" d="M37.46,109.67c-.11.24-.3.39-.42.34s-.14-.3,0-.54.3-.39.43-.33S37.57,109.43,37.46,109.67Z"/><path class="cls-25" d="M69.15,238.35,58.83,148.07c-.61-.85-2.12-.69-2.92.07l10.34,90.54A1.47,1.47,0,0,0,67.7,240h.16A1.47,1.47,0,0,0,69.15,238.35Z"/><path class="cls-47" d="M57.54,177c2.08,15.19,6.89,50.29,9.51,69.46l7.49-3.27c-2.68-19.25-7.63-54.73-9.73-69.83Z"/><path class="cls-27" d="M67.05,247.05a.24.24,0,0,1-.18-.08.7.7,0,0,1-.16-.38L57.2,177.14a.69.69,0,0,1,.24-.71l7.27-3.65a.24.24,0,0,1,.27.06.61.61,0,0,1,.17.38l9.74,69.83a.7.7,0,0,1-.26.72L67.14,247ZM58,177.42l9.36,68.31,6.82-3-9.58-68.65Z"/><path class="cls-48" d="M50.26,180.64c2.06,15.27,6.73,50,9.3,69.08l7.49-3.26c-2.62-19.17-7.43-54.27-9.51-69.46Z"/><path class="cls-27" d="M59.56,250.32a.24.24,0,0,1-.18-.09.67.67,0,0,1-.16-.37C56.65,230.77,52,196,49.92,180.78a.72.72,0,0,1,.25-.71l7.27-3.64a.22.22,0,0,1,.27,0,.64.64,0,0,1,.17.38l9.51,69.46a.7.7,0,0,1-.25.72l-7.49,3.26A.15.15,0,0,1,59.56,250.32Zm-8.88-69.26C52.75,196.43,57.27,230,59.82,249l6.81-3-9.35-68.27Z"/><path class="cls-49" d="M43,184.28c2,15.35,6.57,49.7,9.08,68.71l7.49-3.27c-2.57-19.09-7.24-53.81-9.3-69.08Z"/><path class="cls-27" d="M52.07,253.59a.23.23,0,0,1-.18-.09.63.63,0,0,1-.16-.38l-1.12-8.45c-2.57-19.48-6.21-47-8-60.25a.73.73,0,0,1,.24-.71l7.28-3.64a.22.22,0,0,1,.27.05.83.83,0,0,1,.17.39c2,15.27,6.72,50,9.29,69.08a.71.71,0,0,1-.25.71l-7.49,3.27ZM43.41,184.7c1.77,13.47,5.34,40.49,7.88,59.71l1,7.85,6.81-3c-2.55-18.95-7.06-52.48-9.13-67.9Z"/><path class="cls-50" d="M35.72,187.93c2,15.42,6.4,49.4,8.86,68.32L52.07,253c-2.51-19-7-53.36-9.08-68.71Z"/><path class="cls-27" d="M44.58,256.85a.26.26,0,0,1-.19-.09.66.66,0,0,1-.15-.38l-.67-5.13c-2.52-19.44-6.37-49.08-8.19-63.19a.71.71,0,0,1,.24-.71l7.27-3.64a.22.22,0,0,1,.28.06.67.67,0,0,1,.16.38c1.76,13.33,5.42,41,8,60.48l1.09,8.22a.72.72,0,0,1-.25.72l-7.5,3.26A.11.11,0,0,1,44.58,256.85Zm-8.45-68.5C38,202.66,41.76,231.8,44.25,251l.59,4.53,6.81-3-1-7.66c-2.54-19.19-6.12-46.3-7.91-59.85Z"/><path class="cls-51" d="M28.44,191.57c2,15.49,6.25,49.11,8.65,67.95l7.49-3.27c-2.46-18.92-6.86-52.9-8.86-68.32Z"/><path class="cls-27" d="M37.09,260.12a.26.26,0,0,1-.19-.09.73.73,0,0,1-.16-.38c-2.39-18.84-6.67-52.46-8.64-67.95a.71.71,0,0,1,.24-.7l7.28-3.65a.25.25,0,0,1,.28.06.73.73,0,0,1,.16.39c1.82,14.07,5.65,43.62,8.18,63l.68,5.27a.68.68,0,0,1-.26.71l-7.49,3.27ZM28.85,192c2,15.55,6.12,48.07,8.5,66.8l6.81-3-.61-4.71C41.07,232,37.31,203,35.46,188.68Z"/><path class="cls-52" d="M22.7,194.45l7.61,68,6.78-3c-2.4-18.84-6.68-52.46-8.65-67.95Z"/><path class="cls-27" d="M30.31,263.07a.25.25,0,0,1-.19-.09.73.73,0,0,1-.16-.39l-7.6-68a.71.71,0,0,1,.24-.69L28.34,191a.22.22,0,0,1,.28.06.67.67,0,0,1,.16.38c2,15.49,6.25,49.12,8.65,67.95a.68.68,0,0,1-.26.71l-6.78,2.95A.12.12,0,0,1,30.31,263.07Zm-7.21-68.2,7.48,66.87,6.09-2.66c-2.37-18.68-6.51-51.16-8.49-66.75Z"/><path class="cls-53" d="M72.08,169.72c2.13,15,7.22,50.87,10,70.2l7.49-3.26c-2.8-19.42-8-55.69-10.18-70.58Z"/><path class="cls-27" d="M82,240.52a.27.27,0,0,1-.18-.08.7.7,0,0,1-.16-.38l-10-70.2a.71.71,0,0,1,.24-.72l7.27-3.64a.24.24,0,0,1,.27.06.75.75,0,0,1,.17.37l10.18,70.59a.69.69,0,0,1-.25.72l-7.49,3.26A.15.15,0,0,1,82,240.52ZM72.5,170.13l9.8,69.07,6.81-3-10-69.4Z"/><path class="cls-54" d="M64.81,173.36c2.1,15.1,7,50.58,9.73,69.83l7.5-3.27c-2.74-19.33-7.83-55.2-10-70.2Z"/><path class="cls-27" d="M74.54,243.79a.26.26,0,0,1-.18-.09.63.63,0,0,1-.15-.37L64.47,173.5a.71.71,0,0,1,.24-.72L72,169.14a.24.24,0,0,1,.27.06.61.61,0,0,1,.17.38l10,70.2a.72.72,0,0,1-.25.72l-7.5,3.27Zm-9.31-70,9.57,68.69,6.82-3-9.8-69Z"/><polygon class="cls-55" points="119.66 223.53 108.59 151.43 101.15 155.16 112.02 226.86 119.66 223.53"/><path class="cls-27" d="M112,227.46c-.16,0-.3-.18-.34-.45l-10.87-71.7a.7.7,0,0,1,.24-.72l7.44-3.73a.22.22,0,0,1,.27,0,.71.71,0,0,1,.17.37L120,223.37a1,1,0,0,1,0,.46.46.46,0,0,1-.21.28l-7.65,3.33Zm-10.45-71.89,10.7,70.56,7-3-10.89-70.92Z"/><path class="cls-56" d="M101.15,155.16l-7.27,3.64,10.64,71.32,7.5-3.26Z"/><path class="cls-27" d="M104.52,230.72c-.16,0-.3-.18-.34-.45L93.54,159a.72.72,0,0,1,.24-.73l7.27-3.63a.22.22,0,0,1,.27,0,.64.64,0,0,1,.16.37l10.88,71.7a1,1,0,0,1,0,.45.47.47,0,0,1-.22.28l-7.49,3.26A.15.15,0,0,1,104.52,230.72ZM94.3,159.21l10.47,70.19,6.82-3L100.9,155.91Z"/><path class="cls-57" d="M79.35,166.08c2.15,14.89,7.38,51.16,10.18,70.58l7.5-3.27c-2.87-19.5-8.25-56.17-10.42-70.95Z"/><path class="cls-27" d="M89.53,237.26a.26.26,0,0,1-.18-.09.71.71,0,0,1-.16-.37L79,166.22a.71.71,0,0,1,.24-.72l7.27-3.64a.24.24,0,0,1,.27.06.64.64,0,0,1,.16.37l10.42,71a.7.7,0,0,1-.26.72l-7.49,3.27Zm-9.76-70.77,10,69.44,6.81-3L86.36,163.19Z"/><path class="cls-58" d="M86.61,162.44c2.17,14.78,7.55,51.45,10.42,70.95l7.49-3.27L93.88,158.8Z"/><path class="cls-27" d="M97,234a.25.25,0,0,1-.18-.08.7.7,0,0,1-.16-.37l-10.42-71a.71.71,0,0,1,.25-.72l7.26-3.64a.24.24,0,0,1,.27.06.58.58,0,0,1,.17.37L104.86,230a1,1,0,0,1,0,.45.41.41,0,0,1-.21.27L97.11,234ZM87,162.85l10.24,69.81,6.82-3L93.63,159.55Z"/><g class="cls-39"><polygon class="cls-40" points="28.39 245.34 28.58 247.05 117.19 207.45 116.93 205.77 28.39 245.34"/><polygon class="cls-40" points="113.91 186.09 26.39 227.48 26.59 229.19 114.17 187.77 113.91 186.09"/><polygon class="cls-40" points="110.75 165.51 24.05 206.51 24.24 208.22 111.01 167.18 110.75 165.51"/></g><polygon class="cls-41" points="108.59 151.43 119.66 223.53 30.31 262.47 108.59 151.43"/></g></g></g></svg>